<svg xmlns="http://www.w3.org/2000/svg" xmlns:xlink="http://www.w3.org/1999/xlink" viewBox="0 0 1386.86 787.08"><defs><style>.cls-1{fill:none;}.cls-2{fill:url(#Horiztontal_Waves_Invert);}</style><pattern id="Horiztontal_Waves_Invert" data-name="Horiztontal Waves Invert" width="148.58" height="152.44" patternUnits="userSpaceOnUse" viewBox="0 0 148.58 152.44"><rect class="cls-1" width="148.58" height="152.44"/><path d="M99.28,152.44h49.3c-12.33,0-12.33-10.92-24.65-10.92S111.61,152.44,99.28,152.44Zm24.65-26.08c12.32,0,12.32,10.92,24.65,10.92v10.08h0c-12.33,0-12.33-10.92-24.65-10.92s-12.33,10.92-24.65,10.92S87,136.44,74.63,136.44,62.3,147.36,50,147.36s-12.32-10.92-24.65-10.92S13,147.36.68,147.36l-.68,0V137.26l.68,0c12.33,0,12.33-10.92,24.65-10.92S37.66,137.28,50,137.28s12.33-10.92,24.65-10.92S87,137.28,99.28,137.28,111.61,126.36,123.93,126.36Zm0-30.32C136.25,96,136.25,107,148.58,107V117h0c-12.33,0-12.33-10.92-24.65-10.92S111.6,117,99.28,117,87,106.12,74.63,106.12,62.3,117,50,117s-12.32-10.92-24.65-10.92S13,117,.68,117L0,117V106.94l.68,0C13,107,13,96,25.33,96S37.66,107,50,107,62.31,96,74.63,96,87,107,99.28,107,111.61,96,123.93,96Zm0-15.16c12.32,0,12.32,10.92,24.65,10.92v10.08h0c-12.33,0-12.33-10.92-24.65-10.92s-12.33,10.92-24.65,10.92S87,91,74.63,91,62.3,101.88,50,101.88,37.66,91,25.33,91,13,101.88.68,101.88l-.68,0V91.78l.68,0C13,91.8,13,80.88,25.33,80.88S37.66,91.8,50,91.8,62.31,80.88,74.63,80.88,87,91.8,99.28,91.8,111.61,80.88,123.93,80.88Zm0,30.32c12.32,0,12.32,10.92,24.65,10.92V132.2h0c-12.33,0-12.33-10.92-24.65-10.92S111.6,132.2,99.28,132.2,87,121.28,74.63,121.28,62.3,132.2,50,132.2s-12.32-10.92-24.65-10.92S13,132.2.68,132.2l-.68,0V122.1l.68,0C13,122.12,13,111.2,25.33,111.2S37.66,122.12,50,122.12,62.31,111.2,74.63,111.2,87,122.12,99.28,122.12,111.61,111.2,123.93,111.2ZM0,152.42l.68,0H0Zm25.33-10.9c12.33,0,12.33,10.92,24.65,10.92H.68C13,152.44,13,141.52,25.33,141.52Zm49.3,0c12.33,0,12.33,10.92,24.65,10.92H50C62.31,152.44,62.31,141.52,74.63,141.52ZM25.33,0h49.3C62.3,0,62.3,10.92,50,10.92S37.66,0,25.33,0Zm49.3,0h49.3C111.6,0,111.6,10.92,99.28,10.92S87,0,74.63,0ZM0,0H25.33C13,0,13,10.92.68,10.92L0,10.9ZM123.93,65.72c12.32,0,12.32,10.92,24.65,10.92V86.72h0c-12.33,0-12.33-10.92-24.65-10.92S111.6,86.72,99.28,86.72,87,75.8,74.63,75.8,62.3,86.72,50,86.72,37.66,75.8,25.33,75.8,13,86.72.68,86.72L0,86.7V76.62l.68,0C13,76.64,13,65.72,25.33,65.72S37.66,76.64,50,76.64,62.31,65.72,74.63,65.72,87,76.64,99.28,76.64,111.61,65.72,123.93,65.72Zm0-60.64C136.25,5.08,136.25,16,148.58,16V26.08h0c-12.33,0-12.33-10.92-24.65-10.92S111.6,26.08,99.28,26.08,87,15.16,74.63,15.16,62.3,26.08,50,26.08,37.66,15.16,25.33,15.16,13,26.08.68,26.08l-.68,0V16l.68,0C13,16,13,5.08,25.33,5.08S37.66,16,50,16,62.31,5.08,74.63,5.08,87,16,99.28,16,111.61,5.08,123.93,5.08ZM148.58,0V10.92h0C136.25,10.92,136.25,0,123.93,0ZM123.93,20.24c12.32,0,12.32,10.92,24.65,10.92V41.24h0c-12.33,0-12.33-10.92-24.65-10.92S111.6,41.24,99.28,41.24,87,30.32,74.63,30.32,62.3,41.24,50,41.24,37.66,30.32,25.33,30.32,13,41.24.68,41.24l-.68,0V31.14l.68,0C13,31.16,13,20.24,25.33,20.24S37.66,31.16,50,31.16,62.31,20.24,74.63,20.24,87,31.16,99.28,31.16,111.61,20.24,123.93,20.24Zm0,30.32c12.32,0,12.32,10.92,24.65,10.92V71.56h0c-12.33,0-12.33-10.92-24.65-10.92S111.6,71.56,99.28,71.56,87,60.64,74.63,60.64,62.3,71.56,50,71.56,37.66,60.64,25.33,60.64,13,71.56.68,71.56l-.68,0V61.46l.68,0C13,61.48,13,50.56,25.33,50.56S37.66,61.48,50,61.48,62.31,50.56,74.63,50.56,87,61.48,99.28,61.48,111.61,50.56,123.93,50.56Zm0-15.16c12.32,0,12.32,10.92,24.65,10.92V56.4h0c-12.33,0-12.33-10.92-24.65-10.92S111.6,56.4,99.28,56.4,87,45.48,74.63,45.48,62.3,56.4,50,56.4,37.66,45.48,25.33,45.48,13,56.4.68,56.4l-.68,0V46.3l.68,0C13,46.32,13,35.4,25.33,35.4S37.66,46.32,50,46.32,62.31,35.4,74.63,35.4,87,46.32,99.28,46.32,111.61,35.4,123.93,35.4Z"/></pattern></defs><g id="Layer_2" data-name="Layer 2"><g id="Layer_1-2" data-name="Layer 1"><rect class="cls-2" width="1386.86" height="787.08"/></g></g></svg>