<svg xmlns="http://www.w3.org/2000/svg" xmlns:xlink="http://www.w3.org/1999/xlink" viewBox="0 0 1386.42 912.97"><defs><style>.cls-1{fill:none;}.cls-2{fill:url(#Vertical_Waves_Invert);}</style><pattern id="Vertical_Waves_Invert" data-name="Vertical Waves Invert" width="152.44" height="148.58" patternTransform="translate(-106.62 -106.76) scale(1 1.17)" patternUnits="userSpaceOnUse" viewBox="0 0 152.44 148.58"><rect class="cls-1" width="152.44" height="148.58"/><path d="M152.44,49.3V0c0,12.32-10.92,12.32-10.92,24.65S152.44,37,152.44,49.3ZM126.36,24.65c0-12.33,10.92-12.33,10.92-24.65h10.08c0,12.33-10.92,12.33-10.92,24.65S147.36,37,147.36,49.3,136.44,61.63,136.44,74s10.92,12.32,10.92,24.65-10.92,12.32-10.92,24.65,10.92,12.32,10.92,24.65c0,.23,0,.46,0,.68H137.26c0-.23,0-.45,0-.69,0-12.32-10.92-12.32-10.92-24.64s10.92-12.33,10.92-24.65S126.36,86.27,126.36,74s10.92-12.33,10.92-24.65S126.36,37,126.36,24.65ZM96,24.65C96,12.32,107,12.32,107,0H117c0,12.33-10.92,12.33-10.92,24.65S117,37,117,49.3,106.12,61.63,106.12,74,117,86.27,117,98.6s-10.92,12.32-10.92,24.65S117,135.57,117,147.9c0,.23,0,.46,0,.68H106.94c0-.23,0-.45,0-.69C107,135.57,96,135.57,96,123.25S107,110.92,107,98.6,96,86.27,96,74,107,61.62,107,49.3,96,37,96,24.65Zm-15.16,0C80.88,12.32,91.8,12.32,91.8,0h10.08C101.88,12.33,91,12.33,91,24.65S101.88,37,101.88,49.3,91,61.63,91,74s10.92,12.32,10.92,24.65S91,110.92,91,123.25s10.92,12.32,10.92,24.65c0,.23,0,.46,0,.68H91.78c0-.23,0-.45,0-.69,0-12.32-10.92-12.32-10.92-24.64S91.8,110.92,91.8,98.6,80.88,86.27,80.88,74,91.8,61.62,91.8,49.3,80.88,37,80.88,24.65Zm30.32,0c0-12.33,10.92-12.33,10.92-24.65H132.2c0,12.33-10.92,12.33-10.92,24.65S132.2,37,132.2,49.3,121.28,61.63,121.28,74,132.2,86.27,132.2,98.6s-10.92,12.32-10.92,24.65,10.92,12.32,10.92,24.65c0,.23,0,.46,0,.68H122.1c0-.23,0-.45,0-.69,0-12.32-10.92-12.32-10.92-24.64s10.92-12.33,10.92-24.65S111.2,86.27,111.2,74s10.92-12.33,10.92-24.65S111.2,37,111.2,24.65Zm41.22,123.93c0-.23,0-.45,0-.69v.69Zm-10.9-25.33c0-12.33,10.92-12.33,10.92-24.65v49.29C152.44,135.57,141.52,135.57,141.52,123.25Zm0-49.3c0-12.33,10.92-12.33,10.92-24.65V98.6C152.44,86.27,141.52,86.27,141.52,74ZM0,123.25V74C0,86.27,10.92,86.27,10.92,98.6S0,110.92,0,123.25ZM0,74V24.65C0,37,10.92,37,10.92,49.3S0,61.63,0,74Zm0,74.63V123.25c0,12.32,10.92,12.32,10.92,24.65,0,.23,0,.46,0,.68ZM65.72,24.65C65.72,12.32,76.64,12.32,76.64,0H86.72c0,12.33-10.92,12.33-10.92,24.65S86.72,37,86.72,49.3,75.8,61.63,75.8,74,86.72,86.27,86.72,98.6,75.8,110.92,75.8,123.25s10.92,12.32,10.92,24.65c0,.23,0,.46,0,.68H76.62c0-.23,0-.45,0-.69,0-12.32-10.92-12.32-10.92-24.64S76.64,110.92,76.64,98.6,65.72,86.27,65.72,74,76.64,61.62,76.64,49.3,65.72,37,65.72,24.65Zm-60.64,0C5.08,12.32,16,12.32,16,0H26.08c0,12.33-10.92,12.33-10.92,24.65S26.08,37,26.08,49.3,15.16,61.63,15.16,74,26.08,86.27,26.08,98.6s-10.92,12.32-10.92,24.65,10.92,12.32,10.92,24.65c0,.23,0,.46,0,.68H16c0-.23,0-.45,0-.69,0-12.32-10.92-12.32-10.92-24.64S16,110.92,16,98.6,5.08,86.27,5.08,74,16,61.62,16,49.3,5.08,37,5.08,24.65ZM0,0H10.92C10.92,12.33,0,12.33,0,24.65ZM20.24,24.65C20.24,12.32,31.16,12.32,31.16,0H41.24c0,12.33-10.92,12.33-10.92,24.65S41.24,37,41.24,49.3,30.32,61.63,30.32,74,41.24,86.27,41.24,98.6s-10.92,12.32-10.92,24.65,10.92,12.32,10.92,24.65c0,.23,0,.46,0,.68H31.14c0-.23,0-.45,0-.69,0-12.32-10.92-12.32-10.92-24.64S31.16,110.92,31.16,98.6,20.24,86.27,20.24,74,31.16,61.62,31.16,49.3,20.24,37,20.24,24.65Zm30.32,0C50.56,12.32,61.48,12.32,61.48,0H71.56c0,12.33-10.92,12.33-10.92,24.65S71.56,37,71.56,49.3,60.64,61.63,60.64,74,71.56,86.27,71.56,98.6s-10.92,12.32-10.92,24.65,10.92,12.32,10.92,24.65c0,.23,0,.46,0,.68H61.46c0-.23,0-.45,0-.69,0-12.32-10.92-12.32-10.92-24.64S61.48,110.92,61.48,98.6,50.56,86.27,50.56,74,61.48,61.62,61.48,49.3,50.56,37,50.56,24.65Zm-15.16,0C35.4,12.32,46.32,12.32,46.32,0H56.4c0,12.33-10.92,12.33-10.92,24.65S56.4,37,56.4,49.3,45.48,61.63,45.48,74,56.4,86.27,56.4,98.6s-10.92,12.32-10.92,24.65S56.4,135.57,56.4,147.9c0,.23,0,.46,0,.68H46.3c0-.23,0-.45,0-.69,0-12.32-10.92-12.32-10.92-24.64S46.32,110.92,46.32,98.6,35.4,86.27,35.4,74,46.32,61.62,46.32,49.3,35.4,37,35.4,24.65Z"/></pattern></defs><g id="Layer_2" data-name="Layer 2"><g id="Layer_1-2" data-name="Layer 1"><rect class="cls-2" width="1386.42" height="912.97"/></g></g></svg>