<svg xmlns="http://www.w3.org/2000/svg" viewBox="0 0 66.69 65.11"><defs><style>.cls-1{fill:#ffca02;}</style></defs><g id="Layer_2" data-name="Layer 2"><g id="Layer_1-2" data-name="Layer 1"><path class="cls-1" d="M50.94,32.68c.11,0,.25,0,.35-.1v-.31a.9.9,0,0,0,.7.16l.07-.15c-.07-.17-.25-.21-.32-.36-.25-.1-.25-.34-.27-.55a.8.8,0,0,0-.21-.56H51a1.44,1.44,0,0,1-.28-.44,1.72,1.72,0,0,0-.33-.48v-.21l-.51-.44.58-.26c.16.09,0,.29.21.42l.4.22c0,.2,0,.38.24.45a.23.23,0,0,1,.12.12c0,.15.16.18.26.24.21-.13.33.1.52.13l.11,0h0a.9.9,0,0,1,0-.16,1.54,1.54,0,0,1,.13-.14h.3l.21-.27.39.06.23-.17.11-.21a.78.78,0,0,0-.57-.64,1.15,1.15,0,0,0,.05-.44c0-.12,0-.27-.13-.38a1.89,1.89,0,0,1-.26-.39l0-.35c0-.13.19-.24.3-.36h.13a5.68,5.68,0,0,0,.69,1.28h.41l.12.12h.27l.28-.2c.1-.06,0-.2.13-.26-.11-.11,0-.28-.16-.39s-.13-.23-.2-.39v-.15l.13,0a.52.52,0,0,1,.22.44.44.44,0,0,0,.11.28l.09.67.09,0v.13c.13,0,.08.15.2.16s.15.12.21.17,0,.2-.07.26-.13,0-.49-.16l-.12.19.32.2v.17l-.27.27H55v.2l.24.2h.2a.58.58,0,0,0,.24-.35,1.46,1.46,0,0,1,.48-.71l.11-.11h.13l.25-.3a2.83,2.83,0,0,1,.23-.28,3.2,3.2,0,0,0,.25-.27c.07-.08.05-.24.22-.27a2,2,0,0,1,0-.49.52.52,0,0,0,0-.36c-.07-.15,0-.32.11-.5a1.6,1.6,0,0,1-.31-.61c-.09-.21-.2-.42-.31-.64a4.68,4.68,0,0,0-.29-.37,1.32,1.32,0,0,0-.22-.18l-.1-.09c-.07-.07-.11-.14-.18-.2a1.82,1.82,0,0,0-.23-.15c-.07,0,0-.17-.16-.16-.05-.18-.21-.21-.35-.29a1.23,1.23,0,0,0-.67-.23.66.66,0,0,1-.22-.08v-.11l-.23-.21h-.35l0,.25.24.21c.2-.05.19.21.35.31l.29-.12H55c0,.06.05.13.07.18a.67.67,0,0,0,.09.14l.18.25a.48.48,0,0,1,0,.14l.28.24v.24l.15.14c.09,0,.21,0,.29.07.13-.06.18.09.27.12s0,.22.2.17l.26.52c0,.09,0,.21,0,.33s0,.2-.05.3a.2.2,0,0,0,0,.2c.1.18,0,.37.06.57h-.23l-.18-.19-.08-.78-.08-.08-.2.09v.22l-.15.21s0,0,0,0a4.17,4.17,0,0,1,0-.5,3.11,3.11,0,0,1,0-.32c.1,0,.22,0,.25-.13l-.35-.3a1,1,0,0,1-.57-.11c-.11.16.16.34,0,.5,0,.17,0,.36-.06.55l-.16-.12-.17-.07c-.07-.15,0-.27,0-.39l-.2-.2-.1-.38-.3-.11-.1-.11a.41.41,0,0,1-.12-.3,1.11,1.11,0,0,1,.1-.57.39.39,0,0,0,0-.19L54,24.14l-.49-.07-.22-.48.31-.29v-.37a.22.22,0,0,1,.31-.05,1.55,1.55,0,0,1,.39.28,1.25,1.25,0,0,0,.44.27.55.55,0,0,1,.15.08l.12.06v.12l0,0a1,1,0,0,1,.78.25,4.59,4.59,0,0,0,.44.33,2.47,2.47,0,0,1,.45.4,2.88,2.88,0,0,1,.5.7c0,.08.16.13.14.27s.06.16.11.24.07.07.11.11v.29c.07.13.17.1.27.1a1.17,1.17,0,0,1,.5-.35.35.35,0,0,1,.21-.06.6.6,0,0,0,.22,0,.55.55,0,0,1,.36,0,.85.85,0,0,0,.22,0l.62.06a.39.39,0,0,1,.15.06.2.2,0,0,0,.15.06,1.56,1.56,0,0,1,.76.23.83.83,0,0,1,.37.09.84.84,0,0,0,.56.08l.31.16.84.09c.09.12.24.12.36.17s.24.1.36,0a.49.49,0,0,0,.16.05,1.44,1.44,0,0,1,.72.24,2.29,2.29,0,0,0,.46.17c.05,0,.13,0,.17.07a2.09,2.09,0,0,1,.08.23,1.07,1.07,0,0,1,0,.18l.17.33v.29l-.15.12s0,0,0,0-.07-.19-.1-.28,0-.11-.21-.13c-.21.19-.11.45-.14.69H64.7l-.3-.5.23-.42.06,0v-.26l-.08-.08h-.35l-.21-.23h-.52a3.13,3.13,0,0,0-.71-.24,4.49,4.49,0,0,0-.83-.12.28.28,0,0,1-.11-.05l-.19-.24-.61.08a1.71,1.71,0,0,1-.66.22l.15-.43-.39-.2a.48.48,0,0,0-.48,0,.24.24,0,0,1-.22,0c-.15-.08-.3,0-.45,0a.49.49,0,0,0-.17,0c-.06,0-.07-.06-.14,0a2.22,2.22,0,0,0-.66.26l-.09,0v.12l-.12.12v.64a.77.77,0,0,0-.19.42,1.34,1.34,0,0,1-.1.43c0,.06,0,.17,0,.26l-.35.35v.15H57c-.08.08-.19.14-.21.22s-.16.09-.15.2h-.08a.73.73,0,0,0-.35.86l.08.08h.29c0-.13.22-.16.23-.34A1.84,1.84,0,0,1,57,29.7c.22-.05.16-.32.28-.48l.26.17h.28a.9.9,0,0,0,.2-.61c.14-.13.06-.42.32-.44,0,0,0,0,0,0s.13-.2.16-.32.17-.15.24-.24.19-.24.29-.35a.52.52,0,0,0,.14-.33l.09,0,0-.1h.25l.12.12.48-.08.06.08a.45.45,0,0,1,0,.11c0,.07-.17.11-.42.11l-.46.24c0,.18-.05.35.06.51a1.57,1.57,0,0,1-.64.71.4.4,0,0,0-.13.13.43.43,0,0,1-.19.21c-.22.07-.25.27-.32.42s-.1.29-.27.36-.14.17-.21.26,0,.08-.06.14l-.11-.05h-.11l-.3.15a.78.78,0,0,1-.13.23.29.29,0,0,0-.09.32l.23.2,0,0,.13.3h.23v-.25L57.15,31v-.22h.13l.12-.12h.28l.53-.36c.07,0,.1-.15.17-.2a1.83,1.83,0,0,1,.24-.13s0-.08.07-.12l.37-.16c0-.14.19-.19.32-.26a.79.79,0,0,1,.56-.11c-.07.31-.24.45-.66.52l-.14.15v.16a.7.7,0,0,1-.17.09,1.28,1.28,0,0,0-.33.06,1,1,0,0,0-.33.2c-.09.09-.2.16-.31.26l.14.3h.31l.34-.18a.71.71,0,0,0,.41,0,.69.69,0,0,1,.56,0c.18,0,.36,0,.54-.05s.36-.06.51-.18.1,0,.14,0,.34,0,.5.06l.11-.12h.17l.27.19v.25l-.14.12a2,2,0,0,0-.91,0c-.09,0-.14.16-.27.12-.16.12-.33,0-.49,0a.94.94,0,0,1-.5,0l-.24-.05a.93.93,0,0,1-.5.11,2.65,2.65,0,0,0-.48.07.57.57,0,0,0-.38.32c0,.07-.12.11-.15.21L57.57,32l-.07.1-.06.1.32.78c.09,0,.18,0,.29,0a1,1,0,0,1,.46,0c.15,0,.28-.07.42-.07a.73.73,0,0,0,.41-.06l.23-.11a.61.61,0,0,1,.22.06.26.26,0,0,0,.31,0,.58.58,0,0,1,.3-.07h.51l.16.09s0,.06,0,.07a.81.81,0,0,1-.42.19s-.08,0-.12.06l-.32.08-.13.53c.32.2.5.55.78.79h.22l.52-.29c.17,0,.31-.07.48-.14V34l.21-.15h0a.43.43,0,0,0,.36-.11,1.23,1.23,0,0,1,.32-.17,4.47,4.47,0,0,0,.6-.45c.11-.11.26-.18.33-.3a2.51,2.51,0,0,0,.19-.24,1.44,1.44,0,0,1,.21-.77,1.27,1.27,0,0,0,.09-.43v-.23a.08.08,0,0,1,0-.05c.14-.1.08-.34.23-.4s.21-.23.32-.34a.58.58,0,0,0,.13-.26,1,1,0,0,0,0-.3c0-.09,0-.14.16-.18l.1.2,0,0v.38c-.06.09-.1.22-.15.22s0,.14-.11.2a.63.63,0,0,0-.2.26c0,.11-.07.22-.11.33s-.08.28-.14.42,0,.3-.1.45-.11.23-.16.34-.07.07-.08.12c-.09.22-.17.46-.24.67a5.39,5.39,0,0,0-1.09.75c0,.07,0,.2.06.2s.08.11.14.15l.16.17c.06,0,.11.12.17.16a1.47,1.47,0,0,1,.32.34,1.15,1.15,0,0,0,.61.49s0,0,.07.06l.25.18c0,.14,0,.28.08.38a.36.36,0,0,0,.06.48l.35.34.07.54.12,0c.17.09.23.29.35.46h.22c0,.11,0,.22,0,.33a3.79,3.79,0,0,0,.19.68.34.34,0,0,1,0,.34l.2.17c.09.11.22.21.1.39s0,.21,0,.32a1,1,0,0,1,0,.17.58.58,0,0,1,0,.16c-.23.14-.49,0-.76.08l-.6.29c-.26,0-.61-.09-.89.17a1.56,1.56,0,0,1-.37-.17.53.53,0,0,0-.47,0,2.18,2.18,0,0,1-.5,0h-.15l-.38.23a6.17,6.17,0,0,1-1,0,13.86,13.86,0,0,0-1.44,0,1.49,1.49,0,0,0-.59.13l-.24.07,0,.09h-.6l-.84-.58h-.08l-.55-.47h-.24s0,0,0,.06c0,.17-.15.27-.21.41s-.14.26-.21.39-.17.1-.22.19-.17.14-.22.23-.13.12-.19.18a.73.73,0,0,1-.23.16c-.13.05-.2.18-.31.26h-.11s0,.11-.12.13-.14.12-.2.19a1,1,0,0,1-.17.19l-.25.19c-.21.14-.41.29-.62.42s0,.16-.16.17-.09.13-.15.19-.14.12-.17.19-.16.09-.19.19H52.9c0,.18-.18.21-.31.25a2.55,2.55,0,0,0-.58.17,1,1,0,0,0-.28.17.44.44,0,0,1-.18.12.82.82,0,0,0-.26.14.46.46,0,0,1-.26.1c-.06,0-.17,0-.19.08s-.25.15-.39.15l-.39-.44v-1c-.18-.11-.14-.36-.29-.49,0-.22-.16-.34-.21-.53a3.44,3.44,0,0,0-.25-.51c-.08-.34.13-.69,0-1.05a1.57,1.57,0,0,0,.15-.61,2.8,2.8,0,0,0,0-.29v-.26c-.12,0,0-.19-.13-.22s-.1-.13-.15-.19-.19-.23-.3-.33l-.31-.29a2.16,2.16,0,0,1-.16-.19c-.05,0-.14,0-.24.07a.51.51,0,0,1-.48,0c-.14-.06-.3-.07-.45-.12a.38.38,0,0,0-.39.11h-.55l-.38.23a1.06,1.06,0,0,0-.35,0,1.1,1.1,0,0,1-.36.07c-.12,0-.25,0-.38,0a1.13,1.13,0,0,0-.41.06.57.57,0,0,1-.48,0h-.09c-.14.09-.3,0-.44.06a4.15,4.15,0,0,1-.86.06,4.68,4.68,0,0,0-.54.07l-.12-.12c-.25,0-.25,0-.38,0a.44.44,0,0,0-.15,0c-.19,0-.39-.05-.56,0a2.1,2.1,0,0,1-1-.1c-.1,0-.24,0-.35-.07s-.07,0-.08,0-.28-.08-.34-.23h-.51a1,1,0,0,0-.6-.17,2.45,2.45,0,0,1-.54-.18l-.17-.07c-.42-.19-.88-.29-1.28-.52a.31.31,0,0,0-.18,0,1.91,1.91,0,0,1-.48-.06.26.26,0,0,1-.11-.07.79.79,0,0,0-.41-.15.78.78,0,0,1-.23-.08c-.27-.18-.6-.21-.87-.38a1.3,1.3,0,0,0-.46-.1c-.16-.09-.33-.19-.5-.27s-.12,0-.18,0v-.07l-.38-.17,0,0h-.34a1.86,1.86,0,0,0-1.07-.42.64.64,0,0,1-.18-.06h-.14l-.34-.17-.34-.18-.11.09.06.35a3.71,3.71,0,0,1,.86.5l-.23.16s-.15,0-.17-.16a.77.77,0,0,1-.62-.28.57.57,0,0,1-.25-.45l-.14-.21c-.23,0-.22.23-.38.27v.12l-.27.19h-.24L27.82,36c-.09,0-.2,0-.31,0l-.26,0h-.06a1.51,1.51,0,0,0-.22-.11l-.61-.08a1.06,1.06,0,0,0-.79-.21,1.87,1.87,0,0,0-.63-.24,2.43,2.43,0,0,1-.86-.29h-.34a1.07,1.07,0,0,0-1-.12c-.12-.1-.19-.22-.28-.22s-.26-.13-.42-.14a1.54,1.54,0,0,1-.38-.17l-.13.18c.08.11.25.18.34.33s.13,0,.2.08.15.22.26.27a1.86,1.86,0,0,1,.3.24l.32.09a2.9,2.9,0,0,1,.46.52.13.13,0,0,0,.07.05c.13.08.28.13.34.29a.8.8,0,0,1,.34.29c.08.07.13.18.25.19s.17.26.14.41l.69.41,0,.19c.08.15.26.18.38.27l.23-.26c.28,0,.41-.19.45-.55l.09,0v-.18a2.31,2.31,0,0,0,.52-.56h.17l.09.18c-.11.09-.08.3-.29.35a.56.56,0,0,0,0,.07c0,.13-.15.2-.13.36s-.1.23-.17.33a.23.23,0,0,1-.12.1.43.43,0,0,0-.22.28c0,.19-.14.28-.25.41l.09.19h.32l0,.29c.16.08.31.19.54.06l-.15.52.29-.06.13.46.17.08.17-.08V40l.2-.11a.24.24,0,0,0,.05.09,1.29,1.29,0,0,0,.25.27,1.24,1.24,0,0,1,.41.41c0,.08.11.17.25.13a2.66,2.66,0,0,0,.73,1v.09a1.14,1.14,0,0,0,.15.19c.23.19.34.49.55.7.05.06.12.11.17.16s.11.19.18.21.09.13.17.16a.18.18,0,0,1,.11.08.89.89,0,0,1,.08.29c0,.08.15.13.11.23l.28.19c.07.08.07.26.22.34s0,.11.08.16a.92.92,0,0,0,.24.34l.23.22c0,.14.13.18.14.3s.06.07.11.11l-.09.52.41.22a1.15,1.15,0,0,1,.15.43c0,.06.06.16.12.17s.13.13.17.2a2.53,2.53,0,0,0,.31.42.61.61,0,0,1,.09.2c0,.06.06.11.11.22v.67l.1,0,.08.27c0,.12-.1.14-.22.13l-.14-.19,0,0L33,48.71v-.25c-.17-.11-.23-.32-.43-.39-.13.14-.13.16-.06.32a2,2,0,0,1,.21.44,2.49,2.49,0,0,1,.15.73l.25.44.34.15a.91.91,0,0,0,.17-.17c.06-.08.08-.22.15-.25s.12-.14.19-.18a.34.34,0,0,0,.13-.24,2.67,2.67,0,0,1,.09-.26l.53.38.23-.26-.2-.33v-.22s.1,0,.1,0,.25-.13.25-.3,0-.07,0-.1a2,2,0,0,0,0-.35s0-.06,0-.09l.07-.23.13-.06.2.26a2,2,0,0,0,.09.78l.13.11H36l.15-.17a1.92,1.92,0,0,0,0-.3,3.31,3.31,0,0,1-.2-.88c0-.1,0-.2-.06-.3a.52.52,0,0,0,0-.27s0-.11,0-.17a1.67,1.67,0,0,1,.06-.24l.09-.09c0-.15,0-.3.05-.42l-.15-.89a.27.27,0,0,0-.31.09l.08.54-.23.31A10.54,10.54,0,0,1,35.3,44l-.3-.51h-.31L34.48,43V42.8l-.21-.06-.18-.07-.16-.61c-.17-.07-.22-.26-.26-.41a.7.7,0,0,0-.18-.39s0-.08,0-.1a2.15,2.15,0,0,0-.49-.39c-.19-.07-.26-.27-.45-.33v-.12c.29-.21.53,0,.8.1l0,.11a4.22,4.22,0,0,1,.48.71c.08.15.08.15.08.41l0,0a1.68,1.68,0,0,0,.2.35,3.33,3.33,0,0,0,.25.28c.1.09.16.21.26.3s.2.14.28.24a6.31,6.31,0,0,0,.55.61,3.78,3.78,0,0,0,.13.56l.14.25a.17.17,0,0,0,.16-.17.5.5,0,0,1,.22-.43h.12V44l-.17.39.08.16.19.1.26-.39v-.31l.11,0v-.19c.13-.13.13-.13.29,0,0,.62,0,.69-.18,1l.22.15a2.53,2.53,0,0,0,.28-.1c.09,0,.12-.2.29-.18s.18.18.18.36-.36.12-.43.42-.06.41.1.63l.19-.06v-.25c.1-.18.28-.21.46-.28l.13.2c-.12.16-.24.32-.35.49s-.2.39-.34.56a1.92,1.92,0,0,1-.18.22c-.06.06-.07.16-.17.19s-.1.11-.16.17c-.1.29.09.59,0,.89l.12,0v.15s0,0,.08,0a.39.39,0,0,0,.15-.06c.08-.07.19-.11.26-.22s.2-.07.29-.13h.5c.15,0,.31,0,.52-.07a1.43,1.43,0,0,1-.39.33v.4c.09.15.19.3.28.46a2.51,2.51,0,0,0,.35.44c.24.29.22.3.37.38.11-.09.2-.2.38-.18l0,.28h.45l.08-.27-.24-.34c0-.19.19-.3.19-.49h.12l.23.36.7-.07a.63.63,0,0,1,.35.09l-.08.18a.41.41,0,0,1-.44,0c-.07,0-.19,0-.29,0l-.08.27c.11.17.24.34.36.53s.05.13.08.2.06.11.12.11.14.13.23.17.05.17.18.2.14.12.2.19l.19.21h.32l.3.12.25.14-.41.3a1.45,1.45,0,0,1-.17.63l-.26.1.22.23c-.08.07-.11.17-.22.17s-.15.14-.2.22,0,0,0,0l-.24.21c-.05,0-.16,0-.22.09v.17a4.07,4.07,0,0,0,1,.71l.42-.13v0h.33a.47.47,0,0,1,0,.12c-.17.24-.31.51-.65.58-.12,0-.23.16-.33.23a.39.39,0,0,0,.09.38l-.1.17-.18-.16v-.18l.11-.15s0-.07,0-.08a.42.42,0,0,1-.12-.25c0-.07-.1-.14-.17-.19s-.09-.16-.21-.14-.07-.09-.12-.16h-.09c-.27-.22-.48-.51-.74-.74-.14.14-.24.25-.36.35a1.36,1.36,0,0,0-.3.33c.12.21.37.38.29.7H40.6L40.41,55l-.23.23c0,.15.26.27.21.5a3.31,3.31,0,0,1,.26.27c.07.08.12.2.21.25s.14.17.25.23a.77.77,0,0,1,.25.23,1.33,1.33,0,0,0,.84-.16v-.18a.57.57,0,0,0-.11-.11l-.17-.07s-.06-.07-.12-.14l.07-.22h.51V56l.2,0,.07-.06.2-.14a.88.88,0,0,0,.43-.48l.27-.18c0-.21.17-.32.31-.48l-.25-.36,0-.08-.11-.49a2.52,2.52,0,0,1-.21-.25c0-.08-.16-.11-.14-.18l.08-.18.07.17h.16v.15l.24.22a1,1,0,0,0,.13.55s.05,0,.1,0,.05.27-.07.38l.18.35v.25l-.28.15c0,.19-.23.26-.25.48s.06.25.23.26l0,.15.09,0,.17.39-.22,0a1.49,1.49,0,0,1-.36-.59h-.36c-.17.14-.08.29,0,.44l.42.26a2.27,2.27,0,0,1,.38.38c.11-.09.19-.2.35-.12v.18l.13.09a1.54,1.54,0,0,0,.12.91l-.09.2H44.1l-.34.58-.09,0s0,.07,0,.09l.26.16a.56.56,0,0,1,.07.34c0,.25,0,.5,0,.76a.92.92,0,0,1-.09.37.37.37,0,0,1-.16.22.7.7,0,0,1-.29.08,2.29,2.29,0,0,1-.37,0l-.21.21.07.42-.1,0-.15.4c.12.18.31.31.3.55l-.14.08-.23-.28-.26.08c-.09.21-.25.42-.18.67l-.08.17a1.75,1.75,0,0,1-.34.59,1.87,1.87,0,0,1-.26.3.61.61,0,0,1-.25.06l-.44.3c-.33,0-.65,0-1,0-.1,0-.18-.05-.27-.06a1,1,0,0,0-.49.08l0,.08a2.06,2.06,0,0,0-.76.25c-.08,0-.21.06-.32-.06l-.39.11-.15,0a.5.5,0,0,1-.13,0,.68.68,0,0,0-.47-.15h-.31c-.16,0-.19.16-.23.28h-.17l-.4-.31-.17.2h-.21c0-.13-.19-.14-.24-.25a.8.8,0,0,0-.22-.23c-.08-.08-.2-.12-.24-.23l-.52.25-.23.35a.84.84,0,0,1-.35-.46,3,3,0,0,1-.92-.74c.06-.15-.14-.21-.13-.38s-.11-.24-.17-.36a.66.66,0,0,1-.48-.1c-.09-.08-.17,0-.26,0s-.17.28-.14.47a.63.63,0,0,1-.35-.57c-.12,0-.18-.14-.32-.16s-.13-.21-.26-.25-.12-.21-.18-.31a3.2,3.2,0,0,1-.36-.85A2.56,2.56,0,0,1,30,61a.53.53,0,0,0,0-.16s0,0,0,0,0-.29,0-.41l-.23-.16a.8.8,0,0,0-.53.13v.27l-.09.17h-.2v-.31l.23-.33a.61.61,0,0,0-.1-.22,1.31,1.31,0,0,0-.2-.21c-.06-.05-.05-.16-.16-.16a1.24,1.24,0,0,1-.26-.61s-.08-.06-.09-.09c0-.18-.16-.31-.2-.48a3.36,3.36,0,0,1,0-1,2.85,2.85,0,0,0,0-.41l-.08-.09c-.14,0-.18.14-.31.19v-.22c.14-.09.16-.15.16-.39s-.28-.37-.3-.61l-.21-.22a2.61,2.61,0,0,1,.11-.92,1.1,1.1,0,0,1,.17-.29l-.08-.16c-.23,0-.24,0-.45.19,0,.17,0,.36-.22.45v-.47l.19-.36a.37.37,0,0,0-.36-.17.75.75,0,0,1,0,.16.64.64,0,0,1-.08.14l-.49.67-.19,0-.18-.14a1.59,1.59,0,0,1,.14-.26,1.62,1.62,0,0,0,.38-.49c0-.07.1-.12.15-.16,0-.27-.22-.16-.29-.28l-.08.06c-.1,0-.2-.06-.25,0s-.27.11-.34.27l-.21-.13c0-.21.26-.27.23-.48l.35-.46a1.71,1.71,0,0,1,.51,0,2.53,2.53,0,0,0,.54,0,.42.42,0,0,0,.35-.14c-.07-.17-.3-.15-.37-.33-.19,0-.29-.15-.44-.2V52l.2-.1c.13.06.27.12.39.19s.25.15.37.23h.18l.11.11H28l0-.09.3,0c0,.07.16,0,.22.09a1.16,1.16,0,0,0,.24.18h.42l0,.1c.28.08.56-.09.87,0l.08.18-.24.22h-.34l-.15.16a2.42,2.42,0,0,1-.25,1l-.11,0,.08.34.16-.22.12.11v.32l-.24.16c.09.15.08.35.24.45v.33h-.21c0-.12-.17-.16-.2-.29s-.14-.22-.1-.37l-.19-.15h-.35l.08-.69h-.24l-.19.2.07.5c-.07.23-.26.28-.25.48a.54.54,0,0,0,.21.33h.17l.15-.23a1.32,1.32,0,0,0-.16-.25c-.09-.08-.08-.17-.06-.28s.12,0,.15,0a.43.43,0,0,1,.13.37l.29.22v.22l-.3.3.07.31.2.09.18-.36.71.07.2.2-.13,0,0,.06-.4-.07c-.08.14-.31.09-.39.28v.16l.2.15h.18a.71.71,0,0,1,.31-.19,1.13,1.13,0,0,0,.26-.2l.43-.09.06-.18a.61.61,0,0,0,0-.53,2.59,2.59,0,0,1-.09-.42l.2-.15.1.08v.43l.22.14a2.19,2.19,0,0,1,.33-.12,2.29,2.29,0,0,1,.37,0l.19-.38-.17-.36v-.23h0l-.13-.39a1.18,1.18,0,0,1-.32-.63s0-.06-.05-.1c-.1-.21-.09-.21-.06-.5v-.09c-.09-.13-.21-.07-.31-.08l-.28-.27v-.18l.11-.11v-.39l.15-.2.33-.17c0-.26-.28-.35-.36-.57-.19,0-.36,0-.53.08l-.28-.18h-.27c0-.17-.25-.15-.33-.32s-.23-.19-.33-.27v-.31l.31.07a.47.47,0,0,0,.55.29l.35.3a1.44,1.44,0,0,0,.67-.08l.54.62.5-.21v-.44h.22v.22c.16,0,.31,0,.46,0l.08-.19-.08-.16h-.29l-.33-.24c-.12,0-.12,0-.19.16s-.21,0-.33-.06c0-.2.06-.34.22-.51v-.14a6.66,6.66,0,0,1-1.38-1l-.15-.27-.29-.17.12-.32h.22a1.93,1.93,0,0,0,.62.46.47.47,0,0,1,.16.18.36.36,0,0,0,.34.17V48.5l-.18-.13a.38.38,0,0,1-.17-.25.31.31,0,0,0-.2-.24c-.19-.08-.28-.29-.42-.41v-.16l.09,0,.2.22c.06.05.09.15.2.13s.11.11.17.15a3,3,0,0,0,.31.15l.1.33.26.21v.12a1.1,1.1,0,0,1,.49.42c.23.1.23.1.39,0,0,0-.06-.1-.06-.14a.59.59,0,0,0-.13-.34.74.74,0,0,1-.11-.24,1,1,0,0,1,0-.27l-.08-.19-.08,0v-.15H32c-.19-.16-.35-.3-.52-.42a2.42,2.42,0,0,0-.36-.18.14.14,0,0,0-.11,0c-.08.08-.19,0-.29,0a2.43,2.43,0,0,0-.24-.3c-.11-.08-.14-.21-.26-.27l0-.16c.25.1.32.35.51.51l.33-.11v0h.31l.09.12h.15s0-.11,0-.14a1.74,1.74,0,0,1-.3-.49c-.26-.15-.35-.43-.53-.65s-.1-.27-.23-.34a1.14,1.14,0,0,1-.31-.31,3.65,3.65,0,0,0-.24-.31.11.11,0,0,1,0-.09L29.56,44c.05-.12-.14-.06-.12-.18s-.17,0-.18-.16-.13-.08-.2-.1-.13,0-.14-.12-.2-.3-.28-.47l-.07,0v-.13a3.83,3.83,0,0,1-.29-.28,1.59,1.59,0,0,1-.15-.21L27.87,42V41.9l-.2-.2h-.12c-.05-.11-.15-.16-.18-.28a2.09,2.09,0,0,0-.16-.29,2.43,2.43,0,0,0-.21-.31l-.07,0V40.7l-.27-.36a1.53,1.53,0,0,0-.11-.16s-.09,0-.14-.08a.68.68,0,0,1-.33-.39h-.17a.35.35,0,0,0,0,.5c-.08.3.15.62,0,.95l.07.27.21.19V42c.14.08.15.25.23.37a.91.91,0,0,0,.6.45l.11.23c0,.07.06.15.1.22s.16,0,.16.16c.18.18.21.23.2.46l-.19.09a.76.76,0,0,1-.16-.47c-.07-.27-.31-.35-.44-.54h-.11a.24.24,0,0,0,0,.08c0,.17.13.25.23.37s0,.31,0,.46a.85.85,0,0,0,.06.36c.05.16.13.18.27.07l.07-.06a.45.45,0,0,1,.13.1l.47.66a.31.31,0,0,1,.09.14.94.94,0,0,0,.35.52c.09.1.17.21.26.32a.5.5,0,0,0,.13.43s0,.06,0,.1a.54.54,0,0,0,.37.44l.24.11a.21.21,0,0,0,.23-.12l-.15-.1-.15-.15V46.4c.1-.08.17.05.26,0l.15.39c.11,0,.26,0,.35.2L30,47.2h-.19a1.56,1.56,0,0,0,0,.68l-.1,0-.09.16c0,.12.16.2.1.35a3.69,3.69,0,0,1-.4-.29c-.09-.08-.14-.2-.27-.25a.87.87,0,0,1-.27-.27,3.61,3.61,0,0,1-.25-.3c0-.05-.09-.11-.07-.14s-.1-.24-.13-.37a1.11,1.11,0,0,0-.17-.3,3.71,3.71,0,0,0-.23-.32s-.07-.14-.11-.14-.06-.14-.13-.17-.11,0-.12-.12-.09-.1-.14-.14-.26-.3-.39-.45l-.11-.11v-.16c-.11,0-.12-.13-.22-.17s-.12-.16-.19-.24l-.23-.23a.46.46,0,0,1,.11-.35c-.14-.28-.2-.59-.32-.91L26,43c-.05-.21-.21-.4-.12-.64l-.46-.52c-.11,0-.11-.09-.16-.16a.23.23,0,0,1,0-.26,1.17,1.17,0,0,0,.14-.59,2.85,2.85,0,0,0-.14-.5,3.82,3.82,0,0,0-.21-.46.31.31,0,0,1,0-.1l.24-.21h.2l.15-.19a.39.39,0,0,0,0-.09,2.4,2.4,0,0,0-.72-.83c-.11,0-.12-.13-.22-.17s-.14-.12-.22-.15-.13-.14-.22-.18-.09-.14-.15-.19a6.58,6.58,0,0,1-.54-.38c-.17-.18-.4-.28-.56-.48a1.78,1.78,0,0,0-.38-.28L22,36.16c-.12-.08-.19-.22-.3-.31a.54.54,0,0,0-.46-.18L21,35.33l-.16-.13a.88.88,0,0,0-.48.52.38.38,0,0,0,0,.1c.05.2-.11.35-.14.53s-.07.07-.1.1c.1.26.22.51,0,.77v.34a.29.29,0,0,0,.13.28.27.27,0,0,1,.1.24.77.77,0,0,0,.05.17l-.05.13-.06.15h-.26a6,6,0,0,1-.2-.81,1.58,1.58,0,0,1,.07-.83.62.62,0,0,1-.19-.53,2.2,2.2,0,0,0-.1-.72,1,1,0,0,1,0-.58c.09-.39.08-.54-.23-.81a5.22,5.22,0,0,1-2-.3l-.19-.3-.17.14h-.34l-.08-.08.17-.41a.65.65,0,0,0-.06-.37.51.51,0,0,1-.06-.32.93.93,0,0,0,0-.22l.08-.07.37.14a1.51,1.51,0,0,0,.3.67l-.14.3h.17l.11-.11.08-.29h.22l.08.12h.54l.42.21.53.08c0,.06.08.16.13.16s.06.11.12.14l.19.11.32-.14a.86.86,0,0,1,.63.14l.09-.06h.31a2.61,2.61,0,0,1,.27.06l.12.06.31.08.09.09a1,1,0,0,1,.33.05c.08,0,.19,0,.29.06a.74.74,0,0,0,.39.07c.11,0,.21,0,.33,0a.85.85,0,0,1,.35,0h.06c.13.13.32.09.46.17l.09.06c.28-.08.52.17.79.18l.35.26.3-.18c.18-.11.37.15.55,0,.26.12.49.32.8.23.13.18-.16.24-.07.41h.16l.15-.19.11.07a4.15,4.15,0,0,1,.56-.1,1.17,1.17,0,0,1,.3.1l.22-.06c.1,0,.14.18.28.12a1.58,1.58,0,0,1,.47-.3.72.72,0,0,0,.36-.37,1.14,1.14,0,0,1-.09-.16l-.09-.16a.39.39,0,0,0-.37.2c-.06.11-.16.18-.24.3l-.34-.17.15-.34-.39-.27H28a1.47,1.47,0,0,0,.13.17c.05.06.12.11.06.21l-.15.08-.36-.35c-.3,0-.5.2-.72.33a1.78,1.78,0,0,0-.3,0,.51.51,0,0,1-.4-.17c-.18-.06-.38.05-.55-.07-.19,0-.36-.07-.53,0s-.35-.12-.53-.15l0-.1a1.58,1.58,0,0,1-.43,0,3,3,0,0,1-.45-.15c-.08,0-.22-.09-.32.07l-.12-.09-.1,0L23,33.83l-.16-.19a.45.45,0,0,1,.58-.08l.33.17a1.08,1.08,0,0,1,.75,0,.75.75,0,0,0,.26,0,.6.6,0,0,1,.43.18c.25,0,.5.08.76.06a.3.3,0,0,1,.29.16c0,.06.15.08.24.12l.34-.17h.13l0-.09a1,1,0,0,0,.48-.24c.35,0,.35,0,.5,0s.24,0,.32-.16.12,0,.11-.09.08,0,.1-.07a.6.6,0,0,0,0-.16c.09-.26.16-.53.27-.79s0-.33.16-.46a.59.59,0,0,1,.13-.36c.09-.17.14-.35.23-.52s.17-.45.26-.68a2.3,2.3,0,0,0,.21-.59c0-.09.08-.18.12-.27s.12-.17.1-.28a.07.07,0,0,1,0-.05,5.64,5.64,0,0,0,.46-.92,2.68,2.68,0,0,0,.24-.67c0-.14.12-.26.16-.4a1.23,1.23,0,0,0,.13-.41.39.39,0,0,1,.06-.18,3.83,3.83,0,0,0,.29-.7,1.85,1.85,0,0,1,.12-.33c.24-.41.26-.91.52-1.31,0-.13.08-.25.07-.39a4,4,0,0,1,.15-.78c-.14-.17,0-.38,0-.59s0-.43,0-.63a2.29,2.29,0,0,0-.09-.28,3.09,3.09,0,0,0-.29-.73c-.05-.06-.05-.14-.1-.27a.53.53,0,0,1-.17-.12c-.07-.07-.19-.11-.23-.22l0,0c-.21,0-.33-.23-.5-.34s-.29-.08-.4-.21a1,1,0,0,1-.6-.15l0-.07h-.41l-.51-.29,0,0c-.12-.08-.23-.21-.35-.22a1,1,0,0,1-.46-.24,1.59,1.59,0,0,0-.2-.07l-.31-.17h-.18l-.63-.41s0,0,0-.06h-.15l0-.1a.54.54,0,0,1-.24-.1,1.48,1.48,0,0,0-.31-.15l-.34-.17s0-.06-.06-.06c-.23,0-.37-.15-.57-.19a3.78,3.78,0,0,0-.57-.1c-.3,0-.61,0-.91,0a2.78,2.78,0,0,0-.37,0l-.31-.15-.26.05L22.36,17l.07-.37-.19-.16c-.45.11-.83-.17-1.29-.34a.64.64,0,0,1-.46-.13c-.09-.06-.18,0-.27-.06a2.73,2.73,0,0,1-.51-.26,1.75,1.75,0,0,0-.35-.2c-.12,0-.19-.18-.34-.18s-.06-.08-.09-.11a1.12,1.12,0,0,0-.35-.23c-.1,0-.06-.11-.12-.13h-.1L18,14.45,18.2,14,18,13.82h-.37l-.34-.17a.74.74,0,0,1-.56-.17h-.24a1.87,1.87,0,0,0-.7-.36c-.13,0-.22-.14-.36-.13a2.07,2.07,0,0,0-.64-.29.82.82,0,0,1-.22-.16l-.5-.5v-.25a.49.49,0,0,0,.31-.45l-.1-.2L14,11v0l-.27-.28c-.07-.07-.17-.11-.23-.22s-.13-.19-.19-.3a1.06,1.06,0,0,0-.38-.51s0-.07,0-.1c-.23,0-.47.06-.68-.14V9.26h1.3l.11.05.1.08-.18.29.06.49a2.1,2.1,0,0,1,.35.31c.11.16.27.1.39.13l.38.51h.2l.15.23v.17l-.39.32c-.09.17.07.25.11.38l.45.16.26.08a1.62,1.62,0,0,1,.54.31.47.47,0,0,0,.28.12.25.25,0,0,1,.17.06c.08.07.16,0,.28.06l.16.17H17l.23-.25v-.27h.21l.57.22.11-.08.11.21c.08.19-.05.32-.24.41l.13.22h.27L19,14l.11.3h-.41l-.08.26.61.47a.2.2,0,0,0,.11,0,.21.21,0,0,1,.15,0,1,1,0,0,0,.42.18c.07,0,.15,0,.21.06a1.53,1.53,0,0,0,.37.17c.16,0,.28.13.44.17s.21.14.34.24h.39l.11-.1-.21-.46c-.19,0-.19-.26-.42-.31a.82.82,0,0,1-.61-.18l-.29.13L20,14.84l-.08-.4-.21-.17v-.14l.08,0,.08,0a.69.69,0,0,0,.52.38l.25-.1.24.08v.06l.39.12c.2.06.43,0,.65.11l.09.32-.24,0-.12.18a.3.3,0,0,0,.08.16,4.82,4.82,0,0,0,.44.35,2.07,2.07,0,0,0,.52.3s.06.06.1.11a1.4,1.4,0,0,0,.48,0,.36.36,0,0,1,.39.11s.07-.09.12-.11A.6.6,0,0,0,24,16a.25.25,0,0,1,.35,0c.11.08.28.08.38.2L25,16l0,.17.33.16v-.3l-.16-.13H25l.07-.16c.3-.08.51.15.77.18l.2.38h.4a1.5,1.5,0,0,0,.5.26l-.2.16c-.13,0-.32-.09-.52-.12a.34.34,0,0,0-.36-.23c-.12,0-.25,0-.35,0l-.2.26a1.33,1.33,0,0,1-.8-.11.62.62,0,0,0-.38,0,.53.53,0,0,1-.33,0,.31.31,0,0,0-.24,0c-.17.09-.34,0-.51.06l-.14.14v.12l.17.17.36-.13a1.92,1.92,0,0,1,.33.12A.23.23,0,0,0,24,17a.14.14,0,0,1,.11,0,2.72,2.72,0,0,1,.8.05,1.25,1.25,0,0,1,.25.09,8.41,8.41,0,0,0,.82.35c.17.06.36.07.53.14a.92.92,0,0,1,.21.13.25.25,0,0,0,.12,0,1.18,1.18,0,0,1,.3-.1,1.26,1.26,0,0,1,.33.05l.31.06,0,.1H28l.27-.35,0,.13c.14-.05.26.16.42,0l.19.1h.3v-.2l-.21-.18a2,2,0,0,1-.31-.12.77.77,0,0,0-.6-.19.38.38,0,0,0-.5,0,.73.73,0,0,1-.21.06,2.73,2.73,0,0,0-.2-.25,1.46,1.46,0,0,0-.22-.17l0-.27-.13-.06v-.06c-.32-.08-.57-.32-.91-.39-.1-.29-.44-.28-.64-.45H25l-.22-.22-.1.33h-.32a1.2,1.2,0,0,1-.21-.17c-.06-.07-.15-.09-.2-.18A.5.5,0,0,1,23.5,15h-.27l-.34-.18v-.23c-.05,0-.09,0-.1,0a1.2,1.2,0,0,0-.11.2h-.24a1.12,1.12,0,0,1-.38-.63,1.06,1.06,0,0,1-.5-.06l-.1,0a1.38,1.38,0,0,0-.71-.25c-.22-.17-.49-.07-.72-.17,0,0-.1,0-.14,0l-.21.15,0-.32-.19-.12-.21.11c-.19,0-.36-.11-.58-.13v-.29l.15-.18a.65.65,0,0,1,.28.37l.21-.05-.18-.44.23-.28,0-.16h0a2.17,2.17,0,0,0-.36-.55.77.77,0,0,1-.25-.61h-.13l-.16-.24v-.16l.22-.21v-.15h-.24l-.09-.09V10a.28.28,0,0,1,.42,0c.13.12.25.25.38.38v.25l-.27.1-.07.15.08.17h.31l.16.45a.65.65,0,0,1,.27.39,1.2,1.2,0,0,0,.3.58c.09.09.22.19.16.37l.25.2c.11,0,.11,0,.23-.08l-.07-.47a.17.17,0,0,1,.24.06,1,1,0,0,0,.68.39c.08.16-.06.2-.16.27.06.17.24.19.37.24a3.52,3.52,0,0,1,.45.18l.16.11h.32c.09,0,.14.19.28.11a1,1,0,0,0-.61-.76,1.15,1.15,0,0,1-.13-.77l.29-.34c.07,0,.12.06.19.13s.29-.1.42-.18.11-.08.27.05l-.12.17v.29l.22.2V13c-.08.17-.17.3-.07.49a1.3,1.3,0,0,1,.09.41,3,3,0,0,1,.25.25,1,1,0,0,0,.37.24c.12.06.23.17.41.11s.08-.14.17-.11l.36.36h.18l.67.4.21,0,.08-.14,0,0v-.32l-.28-.35a1.08,1.08,0,0,0-.2-.47c-.13-.15-.33-.1-.49-.21a.76.76,0,0,0-.16-.25.9.9,0,0,1-.21-.27c-.05-.07-.1-.2-.16-.21s0-.21-.13-.22l-.18-.48.07-.13a1.3,1.3,0,0,0,.19.11c.3.08.38.31.45.57a4.09,4.09,0,0,0,.2.44l.29.07L25.7,13h.17l.09.44.27.4a.79.79,0,0,0,.19.62,1.77,1.77,0,0,1,.15.36c-.07.16.12.3.13.49s.11.12.19.16a.55.55,0,0,1,.34.31.21.21,0,0,0,.23.15c.21.13.48.13.65.33.19,0,.27.17.39.27a.68.68,0,0,0,.4.23c.15.13.26.31.46.39h.31c0-.36-.3-.55-.48-.75l-.1-.29c0-.11-.07-.21-.1-.31a1.37,1.37,0,0,0-.47-.7v-.22h.27v-.27l-.34-.5V13.8c-.09-.08-.14-.18-.23-.26a.55.55,0,0,1-.11-.33c0-.11.07-.23,0-.38s-.07,0-.08-.08c0-.24-.21-.37-.35-.53a1.12,1.12,0,0,1-.19-.24s0-.09,0-.13c.15-.1.2.1.31.1s.15.1.22.15l.24.14.06,0,.43-.06s0,.09,0,.11a2,2,0,0,1,.39.52.61.61,0,0,0,.25.23.65.65,0,0,1,.31.38l.14,0,0,.1h.5l.15.18c.12,0,.06.17.18.12a2,2,0,0,1,.55.92.82.82,0,0,0,.09.19c.1.22.2.45.31.67a.46.46,0,0,1,0,.17c.23.25.23.25.24.66a1,1,0,0,1,.22.55,1.15,1.15,0,0,0,.11.31,1,1,0,0,1,.13.56.6.6,0,0,0,.07.35.78.78,0,0,1,0,.34l.11,0s0,.05,0,.07a.14.14,0,0,0,.14.15c.09,0,.13-.06.15-.14a3,3,0,0,1,.17-.45,3.59,3.59,0,0,0,.12-.35c-.17-.21.07-.44,0-.68l.13,0a.58.58,0,0,1,.08-.33c0-.11.06-.25.1-.37a6.2,6.2,0,0,0,.24-.87c0-.14.08-.28.12-.41a1,1,0,0,0,0-.42,2.19,2.19,0,0,1,.13-.77c.06-.19.08-.39.16-.58a.56.56,0,0,0,0-.33,2.51,2.51,0,0,1,0-.55l.08-.1h.08a2.65,2.65,0,0,1,.26.21c.08.09.16.08.27.07a.43.43,0,0,0-.22-.46c-.08-.05-.15-.15-.27-.13s-.07-.07-.11-.1l-.1.07s-.09-.08-.1-.12,0-.28-.07-.42a.39.39,0,0,0-.08-.22.55.55,0,0,1-.11-.25l-.09,0v-.17a2,2,0,0,1-.24-.49c0-.11-.11-.18-.09-.31s-.1-.18-.15-.28-.08-.16-.13-.24a1.89,1.89,0,0,0-.2-.2A.59.59,0,0,0,32.66,9a1.28,1.28,0,0,1-.39-.38c-.05-.07-.12-.1-.17-.16s-.08-.12-.16-.17-.14-.18-.21-.28l-.11-.15V7.65c-.18-.11-.14-.33-.24-.48a1.15,1.15,0,0,1-.12-.68.8.8,0,0,0-.1-.43,1.79,1.79,0,0,1-.25-1,3,3,0,0,0,0-.3s-.05,0-.07,0a.47.47,0,0,1-.1-.16c0-.21-.2-.35-.25-.55a1.21,1.21,0,0,1,0-.27l.17-.25c.05.08.08.16.1.16s.07.06.1.1a.45.45,0,0,0,.06.12L31,4c.1,0,.2,0,.27-.09v-.3a7.35,7.35,0,0,1,.07-.82.93.93,0,0,0,0-.33c0-.13.08-.22.07-.33a.49.49,0,0,1,.12-.34h.32c0,.14.15.18.29.23a1,1,0,0,1,.21-.24c.08-.06.08-.17.14-.25A3.86,3.86,0,0,0,32.84,1c.07-.11.09-.24.17-.35a1.07,1.07,0,0,0,.11-.33A.37.37,0,0,1,33.3,0l.14.06.35.76h.28a3.31,3.31,0,0,1,.18-.29c.06-.09.13-.17.22-.29l.39-.08a4.09,4.09,0,0,1,.38.71c.06.1.07.22.22.26s.08.13.13.18.17.14.24.22.12.19.19.27.22.21.33.31.06,0,.06,0c.05.2.22.31.33.46l.26.47a1.3,1.3,0,0,1,.22.46c0,.21.17.32.22.5s.1.33.16.5l.13.07a2.69,2.69,0,0,0,.43-.19,1.06,1.06,0,0,1,.35-.09,1,1,0,0,0,.35-.07.46.46,0,0,1,.38,0,.44.44,0,0,0,.16,0H40a.6.6,0,0,1,.14,0,.42.42,0,0,1,.39,0,.54.54,0,0,0,.48,0c.13-.06.29,0,.4-.16.18,0,.3-.13.46-.17a.54.54,0,0,0,.32-.21c.07-.1.19-.13.26-.23s.2-.1.29-.19.11,0,.15,0l0-.1c.17,0,.36-.05.47.17h.44l0-.13a.46.46,0,0,1,.56,0c0,.29,0,.29,0,.44l.3.23L45,3.8a.89.89,0,0,1,.34.91c.19.14.19.14.34.15l.46-.29.26.27V5a.4.4,0,0,1-.47.3h-.18a1.1,1.1,0,0,1-.6-.12C44.9,4.89,45,4.58,45,4.3c-.27,0-.27,0-.46.12v.2a1.08,1.08,0,0,0-.28.15c-.08.06-.19.11-.19.24s-.12.17-.23.21v.26l.13.06-.19.2h-.31l-.33,0L43,5.84l.12.27A.48.48,0,0,1,42.63,6l-.12.06-.08,0a2.38,2.38,0,0,1-.12.35,2.29,2.29,0,0,1-.27.27v.11c-.07.12-.31.13-.54,0l-.35.27-.22.09c-.07,0-.19.07-.2.12s-.21.15-.24.29c-.31,0-.57.21-.87.18a5.89,5.89,0,0,1-.72.58,1.57,1.57,0,0,0-.7.12c-.08-.11-.15,0-.24,0s-.16,0-.24-.06-.13,0-.19,0c-.24.09-.45.23-.69.33a.7.7,0,0,0-.2.15l-.23.22v.12l-.28.29-.09.55-.09.09v.14s.07,0,.08,0a.54.54,0,0,1,.31-.05l.71-.32c.22-.1.37-.31.63-.34l.09-.15a.55.55,0,0,1,.5.11c.15-.05.15-.18.22-.31l.17.06a.54.54,0,0,0,.45-.09c.17-.14.42-.21.52-.44,0,0,.07-.1.1-.1s.21-.15.34-.17a1.72,1.72,0,0,1,.44-.06,3.34,3.34,0,0,0,.43,0c.16.12.36.14.48.29.19,0,.31.15.49.19v.34l-.24.1-.42-.06-.36-.33a1.22,1.22,0,0,0-.3-.06,1.58,1.58,0,0,0-.31.08l-.09.09H40c-.18.11-.32.28-.55.3l-.23.25-.77.25-.25-.11c-.16.09-.21.3-.38.35s-.3.15-.47.2a2.44,2.44,0,0,1-.53,0l-.22.15.08.17-.17.13-.14-.28-.08.06-.08-.06-.06,0a1.58,1.58,0,0,0-.22.29.62.62,0,0,0,0,.56c0,.12,0,.22-.06.29l-.09-.07-.17.15v.32c.11.08.18,0,.24,0L36,12h.26s0-.07.07-.08a1.81,1.81,0,0,0,.57-.46l.39-.34h.28l.32-.23h.19a1.93,1.93,0,0,1,.62-.24.7.7,0,0,0,.2-.08c.08,0,.14-.1.21-.14.25-.05.54.07.77-.13h.58a1.65,1.65,0,0,0,.62-.14.77.77,0,0,1,.4-.1.37.37,0,0,0,.27,0l.45-.33a3.73,3.73,0,0,0,.36-.43,3.87,3.87,0,0,1,.64-.51,1.41,1.41,0,0,0,.39-.24,1.88,1.88,0,0,1,.25-.24c.17-.16.34-.31.52-.45a4.22,4.22,0,0,0,.53-.5c.16-.2.35-.36.49-.56l.21-.41.06-.12a1.63,1.63,0,0,0,.11-.31,1.82,1.82,0,0,0,0-.33c.11-.13.22-.12.35,0a.59.59,0,0,1-.05.34c-.07.15-.06.32-.17.46a.49.49,0,0,0-.06.32.57.57,0,0,1-.23.52l-.06.07,0,.13-.41.18-.33.31-.35.26c-.08.06-.15.15-.23.22a1,1,0,0,0-.22.23.5.5,0,0,1-.15.14c-.15.11-.29.24-.45.37-.23,0-.31.26-.52.31a1.55,1.55,0,0,0-.15.56c-.19.17-.45.2-.69.36-.25-.05-.49.12-.75.2a2.79,2.79,0,0,1-.75.16.61.61,0,0,1-.34.12,3.64,3.64,0,0,0-.54.1,2.16,2.16,0,0,1-.38.06c-.18,0-.34.13-.52.16a1.55,1.55,0,0,0-.48.19c-.16.07-.29.19-.45.26a1.38,1.38,0,0,0-.34.18,1.73,1.73,0,0,1-.31.22.33.33,0,0,0-.1.06l-.47.41s0,.05-.07.05a2.26,2.26,0,0,0-.55.3l-.16.08V13h-.1c-.18.14-.33.27-.47.4s0,.09-.09.08-.11,0-.15.1l-.12.13v.12h-.31c-.13.18-.07.37-.09.56.12,0,.14.16.23.23V15l-.16.13h-.09l-.1-.13s0,0,0,.06a3.5,3.5,0,0,0-.07.65.43.43,0,0,1-.11.27.77.77,0,0,0-.18.46l-.17.54a2.93,2.93,0,0,1-.13.53c-.09.14-.08.3-.16.43s0,.11,0,.17l-.1,0c-.07.21-.14.43-.23.64l-.15.4a1.85,1.85,0,0,0-.12.33.92.92,0,0,0,0,.52,2.16,2.16,0,0,1,0,.44h-.2a.42.42,0,0,1-.14-.38c0-.18-.07-.35-.06-.53s0-.35,0-.47-.27-.32-.3-.52c0,0,0-.06,0-.09a2.1,2.1,0,0,0-.07-.56l-.3-.22a.63.63,0,0,0-.09-.65,1.12,1.12,0,0,1-.09-.32.94.94,0,0,1-.26-.45c.24-.24,0-.49,0-.76l-.16-.12-.09-.5c-.26-.26-.4-.62-.68-.89l-.41.22a3.06,3.06,0,0,1-.57-.78h-.12s0-.08,0-.09c-.22-.07-.26-.27-.35-.44l-.18-.29a.49.49,0,0,0-.42.23,1.58,1.58,0,0,0,.29.48c.1.1.21.2.31.32a.49.49,0,0,0,.19.48c.11.21.07.39.16.53s.2.47.41.62a.17.17,0,0,1-.11.21c-.06,0-.1,0-.2-.28l-.14-.06-.06.06-.06.06a.26.26,0,0,0,.05.12,1.84,1.84,0,0,1,.42.73.64.64,0,0,0,.27.27v.16c.16.16.19.42.45.54l.09-.21c.1-.19,0-.35-.19-.49s-.08,0-.11-.07,0-.07-.06-.13.06-.31-.06-.47l.24-.47v-.51c.24.05.3.26.4.42a.37.37,0,0,1,0,.15.48.48,0,0,0,.07.44l-.11.05-.1.19.2.33c0,.08-.05.21.05.32a.11.11,0,0,1,0,.11c-.09.08,0,.18-.05.27l.28.48-.09.17-.4-.3h-.2a.35.35,0,0,0,.13.33c.21.18.35.42.57.58s.14.18.23.19c.22.17.16.48.4.61a4,4,0,0,0,.48.6v.59l.29.25a1.82,1.82,0,0,0,.08.64s0,.07,0,.06a.44.44,0,0,0,.4-.19l.4-.13.1.15h.31l0-.1c.09,0,.18,0,.24-.15a.72.72,0,0,1,.33-.29,4.14,4.14,0,0,0,.46-.39c.07,0,.18,0,.27,0l.22-.07.12-.14.54-.12c.25.18.42-.1.63-.18l.22.23c.17,0,.32,0,.48,0a4,4,0,0,0,.41-.06c.12-.12.21-.23.37-.24a.91.91,0,0,0,.38.42c.2,0,.29-.22.49-.22l.46.16a.79.79,0,0,1,.29-.11,2.82,2.82,0,0,0,.63-.09l.11-.1a1.18,1.18,0,0,1,.31,0,.45.45,0,0,0,.36,0,3.76,3.76,0,0,1,.48-.13l.07-.06h.22a.43.43,0,0,0,.3-.06c.11-.08.25,0,.36-.12a.4.4,0,0,1,.36-.1l0-.11a2.65,2.65,0,0,0,.49-.09,2.3,2.3,0,0,0,.44-.26l0-.08h.43l.19-.36.29-.23H45v-.27l-.07-.07h-.59l-.27.31L43.8,18l0-.11-.43.08-.26.3-.22-.19a1.31,1.31,0,0,0-.2-.52l-.21.12H42l-.44.43v.14H41L40.78,18h-.24l-.09.1a.88.88,0,0,0-.76.44c0,.07-.13.11-.19.16l-.36.35H39c-.19-.09-.14-.33-.37-.47l-.39-.18c-.25.11-.25.11-.36.3l-.34-.07-.13.13h-.11l-.15.21-.39.09-.2.21c0,.08,0,.15-.14.2l-.33-.18-.3.19a.66.66,0,0,1-.42-.36.37.37,0,0,0-.36.11c-.18,0-.36-.05-.49,0l-.23.28c0,.05,0,.1,0,.14a1.09,1.09,0,0,0-.27.62s0,.08-.08.13h-.11l-.28.3c-.17,0-.17,0-.28-.19V20.3c.23-.24.16-.54.17-.83.2-.23.21-.28.11-.5l.24-.41c0-.25-.07-.55.05-.85l.18-.15.09-.51a.48.48,0,0,0,.09-.36l.16-.25c.26-.39.55-.76.81-1.16a2.54,2.54,0,0,0,.16-.28,3.1,3.1,0,0,1,.54-.71,1.17,1.17,0,0,0,.05-.11h.32l.13.2a.52.52,0,0,0,.37.62l-.24.62c-.12,0-.22,0-.3-.07v-.33l-.21-.34h-.19a.47.47,0,0,0-.13.44l-.24.3v.14a5.54,5.54,0,0,0-.6.58,3.37,3.37,0,0,0-.33.69.41.41,0,0,1,0,.39,1,1,0,0,0-.13.38c0,.14-.13.22-.13.35l-.11,0v.43a.58.58,0,0,0-.29.35,1.66,1.66,0,0,1-.06.21,1.58,1.58,0,0,1-.12.15l.08.19a.38.38,0,0,0,.36-.17c.09-.14.23-.22.31-.36a.36.36,0,0,1,.28-.17l.23-.06.11-.18c.16,0,.34,0,.46.06a2.93,2.93,0,0,0,.26.41,1.28,1.28,0,0,0,.34.19c.19,0,.12-.23.21-.3-.07-.11-.12-.24-.21-.28a.47.47,0,0,1-.18-.22,1.35,1.35,0,0,0-.14-.3v-.41l-.17-.16V17.3c.09-.1.2-.1.36-.12s0-.26.13-.4l-.32-.19a.85.85,0,0,0-.11-.53c.06-.13.06-.29.22-.37a.27.27,0,0,1,.24.28c0,.26.06.51.08.77h.43a.88.88,0,0,1-.28.77l.12.22a1.51,1.51,0,0,1-.09.62,1.33,1.33,0,0,0,0,.49c.23,0,.24,0,.46-.18a3.48,3.48,0,0,0,.58-.57.36.36,0,0,1,.32-.11l.26-.26v-.51c.08-.08.06-.23.22-.23a3.8,3.8,0,0,1,.18-.54.41.41,0,0,0,0-.54v-.29c.05-.08.17-.13.18-.26s.21,0,.28.1l.09.71H39l.16-.34a1,1,0,0,0,.44-.39c.07-.1.22,0,.29-.16s.17-.12.23-.22a2.21,2.21,0,0,1,.25-.3.19.19,0,0,0,.25-.13.59.59,0,0,1,.28-.26c.13-.1.26-.2.4-.29l.06,0a.83.83,0,0,1,.15-.17.31.31,0,0,1,.3,0V14c-.16.05-.24.2-.35.29l-.33.29-.1.26h-.31l-.57.69c-.28,0-.41.25-.55.46l.13.14h.16l.54-.46h.23c.16-.11.13-.3.24-.42a2.29,2.29,0,0,0,.26-.38l.12.11-.07.57a1.37,1.37,0,0,1-.21.19c-.09.05-.13.14-.2.2l-.12.08c-.15.07-.3.15-.46.21a1,1,0,0,1-.23,0l-.26.29-.35-.1-.29.21h-.29l-.14.14-.09.49-.27.28v.11l.17.1.12-.07c.15.12.33,0,.5.07l0-.1a.83.83,0,0,0,.18-.07.78.78,0,0,0,.13-.19,1.24,1.24,0,0,0,.21.23,1.81,1.81,0,0,0,.25.16l.1-.16h.28c.06-.21-.1-.33-.15-.5s.17-.1.27,0l.21-.08a2,2,0,0,0,.26-.25c0-.08.17-.13.15-.26.13-.07.06-.23.16-.31s.27-.1.43-.09c0-.23.32-.25.43-.47v-.09l.28-.23,0,0h.16l.26-.18H43a1.35,1.35,0,0,0,.43-.29s.08,0,.1,0a2.64,2.64,0,0,0,.39-.34c.07-.07.06-.21.08-.3l.33-.53s.12-.06.12-.11a.28.28,0,0,1,.28-.26l.16-.06.16.46-.09.21-.31-.06a2.3,2.3,0,0,1-.31.48l.15.23.2-.08v-.3l.45,0c.11,0,.13-.12.25-.1a1.14,1.14,0,0,0,.27-.08l.14-.19.42-.09.39-.26.36,0,.1.14-.13.19h-.33a10,10,0,0,1-1.59.83h-.25l0,.07-.48.23c.06.23.1.44.35.52v.47l-.07.22-.26.1v-.24l.19-.39-.19-.13,0,0-.37-.08v-.4l-.1-.11h-.07a0,0,0,0,1,0,0,2,2,0,0,1-.29.29c-.1.07-.24.09-.34.16s-.22,0-.27.15-.16.11-.26.18-.29.14-.44.17.08.28,0,.44l-.2-.13h-.22l-.43.58L41,17a1.73,1.73,0,0,0-.18.19,3.15,3.15,0,0,0-.19.27l.15.09c.08,0,.16-.1.24-.1s.11-.15.21-.19.12-.13.19-.22h.23l.46-.37c.15,0,.34.06.52.07h.59c.11,0,.23,0,.33-.06h.08c.25.13.52,0,.76.07s.26-.1.31-.19.2-.12.25-.25l.25.13h.28l.09-.1h.38c0-.13.18-.08.21-.21s.15-.09.24-.13l.12-.25.28-.1.13-.25a1,1,0,0,0,.55-.19c.15-.11.37-.09.54-.28v-.1l.16-.14a1.91,1.91,0,0,1,.77.08.22.22,0,0,0,0,.11A.37.37,0,0,0,49,15l-.1.23-.52-.08-.13.13H48a2.69,2.69,0,0,1-.33.26c-.06,0,0,.18-.14.15-.06.17-.21.18-.36.17h-.07l-.53.24v.21c.13,0,.25.14.39,0s.14,0,.2,0,.33.27.55.12h.53c.2.22.4.06.62,0l.21.21.18-.15v-.25a.69.69,0,0,0,.23-.26c.06-.16.24-.06.28-.19l.2.09v.3l-.11.13.25.24a.54.54,0,0,1-.16.42h-.19l-.14-.17h-.38l-.12.12c-.15,0-.32,0-.49-.06a.36.36,0,0,0-.27,0c-.14.1-.23,0-.34,0l-.06.05a2.89,2.89,0,0,0-.83-.16,2.79,2.79,0,0,1-.44.17.47.47,0,0,1-.3-.06.52.52,0,0,0-.56.06l-.06-.1h-.56c-.15,0-.28.14-.44.18a1.69,1.69,0,0,0-.48.27h-.27l-.11-.11c-.21,0-.4-.1-.61-.06a1.51,1.51,0,0,0-.28.05c-.13.06-.28-.05-.44-.11l-.36.19c.17.08.23.3.49.19l.11-.14h.34l0,.09.26.13.76.08,0-.12.82.14.15.21c.19,0,.4,0,.6-.06s.25.07.38.06l.19.18.42-.08.15.29a1,1,0,0,0,.69-.11c.24-.11.53-.14.65-.32l.12-.32h.33a.79.79,0,0,0,.3-.05.72.72,0,0,1,.38-.07.24.24,0,0,0,.12,0,1.07,1.07,0,0,1,.68-.11c.32,0,.63-.1,1-.06a1.83,1.83,0,0,1,.7-.06,1.28,1.28,0,0,0,.21.14.37.37,0,0,0,.38.05,1.21,1.21,0,0,1,.66-.06l.09.1h.31l.11-.11H54c.09-.11.09-.11.09-.27a.42.42,0,0,0-.38-.14h-.54v-.44c-.24-.06-.42-.26-.68-.2L52.34,16v-.29l-.13-.21h-.13l-.24-.25-.31.08a.37.37,0,0,0,.17.41c.07,0,.09.14.15.25l-.13.13a1.81,1.81,0,0,0-1-.15l-.17-.16.75-.2.14-.2-.14-.14h-.59l-.13-.14,0-.2,0-.17c0-.13-.28-.3-.39-.25a1.48,1.48,0,0,1-.51,0,.62.62,0,0,0-.37-.18.81.81,0,0,1-.25-.08.93.93,0,0,0-.4-.09.5.5,0,0,1-.48-.2v-.29a1,1,0,0,0,.24-.4.46.46,0,0,0-.51-.15.89.89,0,0,1-.7-.13h-.47l-.09.1-.45.08-.14.19,0,0-.3.13v.27l-.17.08-.13-.15v-.18h.12l.16-.17v-.16c-.17-.18-.25-.44-.44-.61-.4.17-.68.18-.81.35a.83.83,0,0,0-.61.19v.24c-.16.12-.31,0-.47,0v.15c-.11,0-.2.14-.33,0s-.15,0-.22,0l-.09.09v.16l.36.53c0,.08,0,.14-.18.17v.26l-.11,0,0-.27c0-.06-.1-.15-.22-.16v-.46l-.24-.32.34-.17c0-.1.07-.25.15-.3s.11-.19.22-.23l-.09-.09a1,1,0,0,0-.72.15c0,.13-.17.2-.31.26a.83.83,0,0,0-.63-.11.64.64,0,0,1-.47.46s-.35.29-.36.31a.36.36,0,0,1-.28.17l-.26.34c-.26,0-.36.21-.6.36-.06.07,0,.21,0,.33a.16.16,0,0,1-.22.12L39,15l.09-.3a3.29,3.29,0,0,0,.09-.43.37.37,0,0,0-.08-.22,1.88,1.88,0,0,0-.2-.21,3,3,0,0,0-.4.23,1,1,0,0,1-.31.19,1.14,1.14,0,0,0-.23.13l-.56.08-.33.39h-.27s0,0,0-.08a.44.44,0,0,1,.16-.4c.1-.1.18-.22.27-.33a1.07,1.07,0,0,0,.06-.17c.13-.11.31-.06.47-.07l.12.12a1.19,1.19,0,0,0,.62-.22l.53-.29c.09,0,.12,0,.3,0l.28.48h.21a1.15,1.15,0,0,1,.72-.66v-.13c.13-.05.16-.2.28-.27a1.28,1.28,0,0,0,.45-.22c.13-.07.27-.21.45-.07s.18,0,.25.06c.09-.1.26-.08.3-.23l.44-.08.38-.28h.37v.35h-.1v.13l-.17.12.08.15h.16c.2-.11.34-.3.6-.29.06,0,.12-.07.2-.11.32,0,.62-.19,1-.11l.34-.25h.24l.11.27c-.11.1,0,.24,0,.32l.08.16s.13.08.19.07c.21-.06.45-.06.57-.29a1.42,1.42,0,0,1,.73.11c.09.05.23,0,.34,0a.87.87,0,0,1,.42,0,.4.4,0,0,0,.34,0c.11-.06.2,0,.29,0l.09.08a.72.72,0,0,1-.11.53v.43l.48.19a1.2,1.2,0,0,0,.53.05,1.1,1.1,0,0,0,.78.19l.1.11h.3l.14.16v.34l.23.15.62-.07a.54.54,0,0,0,.46.24.31.31,0,0,1,.14.07.76.76,0,0,1,.31.6c.17.21.41.13.62.15l.19.2v.23l.1.1h.45l.17.11a.93.93,0,0,1,.27.25.87.87,0,0,0,.44.4h.13l.28.4-.1.18a.72.72,0,0,1-.52-.23,5.61,5.61,0,0,0-.59-.06c-.19,0-.39,0-.59.07a.29.29,0,0,1-.38.14l-.42-.22a.73.73,0,0,1-1,0c-.13,0-.27,0-.4,0s-.32,0-.48.06H50.5c-.17,0-.34,0-.5,0a.66.66,0,0,0-.32.07c-.1.06-.19,0-.27.05a1.92,1.92,0,0,1-.26.17.45.45,0,0,0-.25.17h-.37l-.33.24c-.19-.06-.33.1-.46.2a2,2,0,0,1-.56.26l-.36.14a2.86,2.86,0,0,0-.42.1,2.28,2.28,0,0,1-.4.17.76.76,0,0,1-.26,0,4,4,0,0,0-1,.12c-.06.09-.15.05-.24.05h-.4a1.37,1.37,0,0,1-.57.27l0,0a2.45,2.45,0,0,0-1,.22.11.11,0,0,1-.08,0,2.29,2.29,0,0,0-1,.24s-.06.05-.09.05a2,2,0,0,0-.63.12h0l-.74.06h-.73c-.36,0-.71.08-1.06.06s-.72,0-1.09,0l-.13,0a.94.94,0,0,1-.7.05.78.78,0,0,0-.37,0c-.22,0-.42.14-.64.16a1.12,1.12,0,0,0-.31.1l-.36.19c-.12.05-.19.17-.34.18s-.12.16-.24.1-.07.12-.11.17l-.31.31a1.31,1.31,0,0,0-.44.69h-.21c-.08-.13-.07-.31-.22-.39l-.16.15a1.64,1.64,0,0,1,.18,1.09,2.15,2.15,0,0,1-.12.5,1.72,1.72,0,0,0-.05.36,3.51,3.51,0,0,0-.24.63c0,.1,0,.22-.13.3a.27.27,0,0,0-.09.22,1.92,1.92,0,0,1-.07.48,1.53,1.53,0,0,1-.32.71,1.59,1.59,0,0,0-.22.35c-.07.17-.12.34-.19.51s0,.23-.07.36L31,28a2.91,2.91,0,0,1-.12.63v0a1,1,0,0,0-.23.55,2.7,2.7,0,0,1-.18.57,1.38,1.38,0,0,1-.34.52.83.83,0,0,0-.19.34c-.08.26-.11.53-.21.79a1.09,1.09,0,0,0,0,.26l-.3.37-.16.37a.68.68,0,0,1-.06.38.49.49,0,0,1-.1.19c-.2.17-.2.43-.32.63l.37.54c.14,0,.27,0,.39,0l.53.08v.22l-.22.37c-.2.09-.44.1-.59.3v.18l.16.13h.33c.16-.13.38-.22.46-.44a1,1,0,0,0,.45-.29v-.33l-.15-.21-.34-.1c0-.09.07-.18.11-.25.15-.26.19-.55.33-.81a1.39,1.39,0,0,0,.11-.81,1.65,1.65,0,0,1,.45-.38c.16-.07.21-.3.42-.3s.12.09.12.27l-.06.07,0,0h-.18l-.1.18a1.52,1.52,0,0,1-.45.61c0,.11.05.22.06.33s0,.21,0,.31-.11.16-.17.23a.36.36,0,0,0-.06.48c.11.17.17.4.45.44l.16-.08.16-.22A.51.51,0,0,0,32,34c.29,0,.48-.18.73-.29H33c.19-.09.35-.24.58-.15,0,.17-.19.16-.29.23L33,34l-.43.08s0,.09-.06.11a.84.84,0,0,1-.3.11.6.6,0,0,0-.45.24.37.37,0,0,0-.34.11.5.5,0,0,1-.29.16.7.7,0,0,0-.45.3c0,.21.09.25.45.26l0,.08.6.22,0,0,.18.19h.13v.07l.39.13v0h.35l.43.35a1.7,1.7,0,0,1,.92.36c.37.13.68.37,1.07.47a2.15,2.15,0,0,1,.25.11.65.65,0,0,1,.34.07.67.67,0,0,0,.24.07,1.57,1.57,0,0,1,.42.18.75.75,0,0,0,.52.15l.22.13a5.74,5.74,0,0,0,.71.33,1.65,1.65,0,0,0,.5,0,1.22,1.22,0,0,0,1,.34.45.45,0,0,0,.36.18c.42,0,.84,0,1.27.06h1.46a1.76,1.76,0,0,0,.6-.1.47.47,0,0,1,.17,0h1l.08-.12h.38l.1.11h.32a.7.7,0,0,1,.49-.22c.11,0,.2-.08.31-.1s.15-.19.29-.14c.17-.15.42-.11.61-.23,0,0,.11,0,.18,0l0-.09.17-.06a.74.74,0,0,0,.16-.12l.13-.24v-.34c.14-.11.23-.28.41-.34l-.29-.15h-.2c-.3,0-.29,0-.57-.25a4.27,4.27,0,0,1-.36-.38,3.29,3.29,0,0,0-.49-.42c-.1-.06-.11-.22-.26-.22a2.3,2.3,0,0,0-.47-.35c-.2-.15-.39-.34-.57-.49A1.43,1.43,0,0,0,44.5,34v-.45a1.51,1.51,0,0,1-.24-.88,9.7,9.7,0,0,0-.59-.82,9.85,9.85,0,0,0-.67-.89.63.63,0,0,1,0-.09,2.3,2.3,0,0,1-.66-.5c-.13,0-.28,0-.4.05l-.2-.07-.08-.2.15-.23a1.5,1.5,0,0,0,.4-.17c.13-.09.32-.07.47-.12a3.21,3.21,0,0,1,.5-.09l0-.09h.08l.46-.31H44a.64.64,0,0,0,.36-.05c.14-.09.31,0,.45-.12s.08,0,.1,0,.25-.21.37-.32h.34l.13.34H46a1.17,1.17,0,0,0,.21-.45h-.4v0l.13,0a.76.76,0,0,1,.38-.43.35.35,0,0,0,.11-.1c.18-.3.18-.3.33-.39a.54.54,0,0,1,.45.1c-.11.23-.38.22-.53.39s.06.55-.18.77V29l.14.14h.57l.21.12a.21.21,0,0,1,.14.15s.14.06.15.1.11.09.13.15.05.14.09.23l-.21,0c-.1-.07-.19-.14-.17-.27a.54.54,0,0,0-.51,0c-.09.05-.23,0-.36,0l-.3-.51c-.09.13-.21.18-.24.31s-.3.06-.46,0l0-.08h-.38l-.14.22c-.12,0-.24,0-.38,0s-.25,0-.34.11a1.34,1.34,0,0,0-.17.27l-.44.06v-.14l.23-.2v-.22h-.28a.07.07,0,0,0,0,0,.47.47,0,0,1-.29.28.34.34,0,0,0-.23.26l-.68-.06a.17.17,0,0,0,.1.22,1,1,0,0,0,.59.11.29.29,0,0,1,0-.13.57.57,0,0,1,.11-.12l.33.17-.1.14h-.33v.23l.16.13h.23c.1,0,.18,0,.26-.06a1.93,1.93,0,0,0,.24-.13l.15.08v.2a1.21,1.21,0,0,0-.16.16c-.09.15-.17.32-.25.45,0,.32.31.43.46.6s0,.21.07.29a.15.15,0,0,0,.15.11.15.15,0,0,0,.14-.12l.12-.4-.09-.2-.31-.17v-.32l.11-.19h.15l.27.34H45l.19-.23h.19v.28a1.42,1.42,0,0,0-.44.44l.05.58c-.11.14-.15.3-.3.37v.18l.28.2c0,.18,0,.36.24.42v.19l0,0-.06.12-.08,0c0-.13-.09-.18-.23-.15a.3.3,0,0,0,.06.28c.06.09.18.17.16.31s0,0,.05.07c.19.21.38.41.56.62h.12c.08.17.25.21.4.31l.28-.13a.66.66,0,0,1,.53.21c0,.18-.23.1-.29.22a.34.34,0,0,0,.07.31.86.86,0,0,0,.2.26c.08.08.18.14.29.23a1.75,1.75,0,0,1,.23,0,.75.75,0,0,1,.36,0,.34.34,0,0,0,.28,0c.1-.07.19,0,.29-.06s.39-.33.59-.52.22-.23.52-.28l.1,0a.54.54,0,0,1,.37-.08l.38-.23h.15l.15.14.14-.11-.2-.3.07-.28-.24-.21v-.15l.22-.16v-.19l.15-.13.13.07a1,1,0,0,1,.13.55,4.89,4.89,0,0,0,.14.64,2.14,2.14,0,0,0,0,.23l.2.43.24-.07c.06-.17.18-.31.13-.49C52,35,52,35,52.39,35a1,1,0,0,1,.13-.17c.07,0,0-.19.14-.17s.11-.1.13-.15a.84.84,0,0,1,.11-.21.75.75,0,0,0,.11-.22l.38-.12c0-.12,0-.22-.11-.3H53l-.34,0-.22.46a.8.8,0,0,0-.34.34.52.52,0,0,1-.33.32l-.37-.32-.08-.4.42-.49h.21v0l.32-.12,0-.09h.12c.48,0,1-.1,1.42-.05.09-.21-.12-.27-.17-.41a1.49,1.49,0,0,1-.55-.07c-.13,0-.17-.09-.27-.12a1.77,1.77,0,0,0-.56,0l-.39.23c-.15,0-.33.06-.5-.07l-.21.19a.16.16,0,0,1-.14-.18A.48.48,0,0,0,50.94,32.68ZM44.31,4.22h-.05l0,.11h0s0-.08-.06-.11l-.08-.46H44v.32l.13.14ZM59.23,36.55a.73.73,0,0,1-.64.07,4.37,4.37,0,0,0-.56-.09.54.54,0,0,1-.41.38c0,.1,0,.21-.1.27s-.34-.06-.51-.15l.09-.24.39-.15V36.4l-.13-.14H57.1c-.09.11-.16.22-.25.31s-.22.25-.11.49a.33.33,0,0,1,0,.29l-.32,0v.45a2.34,2.34,0,0,1,.46.39.89.89,0,0,1,.11.31,2.26,2.26,0,0,0,.1.46l.26-.15.73.46c.08-.1.2,0,.29-.06a2.08,2.08,0,0,0,.21.21l.25.19c.08.06,0,.2.12.24h0l.23-.24,0-.11h.34a.46.46,0,0,1,.23.09c.28.24.28.25.58.28l.06.07-.21.2h-.35L59.5,40l-.25.2v.2H59l-.09-.09V40c-.18,0-.36,0-.47-.22a.26.26,0,0,0-.2-.08c-.13,0-.22-.09-.33-.13s-.06-.1-.09-.1-.27-.13-.38-.23a.43.43,0,0,0-.26-.13l-.06.59a2.38,2.38,0,0,0,.18.22l.24.14.18-.25h.16v.39l.14,0s0,.11.1.12a.37.37,0,0,1,.2.13.46.46,0,0,1,.13.18c0,.08.2,0,.18.12a.59.59,0,0,0,.64,0l0-.16,1,.09.62-.59h.83l.13.14c-.06.13-.2.14-.33.2s-.13-.07-.26.07l.18.16h.23l.09-.1c.26-.07.47.18.74.1l.18-.26a3.88,3.88,0,0,1,.39-.08c.29,0,.56.1.85.06a.92.92,0,0,0,.71,0,.8.8,0,0,1,.21-.05.87.87,0,0,0,.36,0,1,1,0,0,1,.3-.07c.1,0,.2,0,.3,0a.77.77,0,0,1,.27-.07,2.47,2.47,0,0,1,.29-.06c.11,0,.13-.1.12-.22l-.25-.19a2.61,2.61,0,0,1-.48-.05c-.12,0-.21-.1-.33-.13l-.5-.12-.24-.07L64.63,39l.09-.08.46,0s.09,0,.11,0,.27,0,.39,0a4.33,4.33,0,0,0,.08-1.07c-.05,0-.08-.09-.1-.09-.22,0-.25-.16-.31-.31a.68.68,0,0,1,0-.15.81.81,0,0,1-.58-.34v-.12l-.08,0c0-.17,0-.17-.24-.24s-.18,0-.22-.11-.27-.24-.38-.37v-.31l.07-.07.27.11v.34h.17l.13-.22-.27-.53-.37-.15c-.06-.1-.06-.1-.22-.19a.39.39,0,0,1-.36.09c-.1-.16.16-.21.1-.36a1.64,1.64,0,0,1-.37-.61l-.28-.13-.15.09-.06.2.15.17v.18h-.27l-.21-.29-.3.08-.23.27c-.1,0-.22,0-.27.11v0l.06.09a.68.68,0,0,1-.29.36V35l-.39.08a1.1,1.1,0,0,0-.2.32c0,.16,0,.31-.08.48l-.07.07-.22-.3h-.24l-.24.17a.8.8,0,0,0-.32,0c-.1,0-.23,0-.32.07s-.11,0-.14,0a.71.71,0,0,0-.51-.1l-.08,0V36l.21.16c.18.06.32-.1.5-.12l.28.23h.44c.09,0,.12-.17.25-.17s0,.31.11.41a1.12,1.12,0,0,1,.36.05.86.86,0,0,0,.36.07.55.55,0,0,1,.33.11,1.14,1.14,0,0,0,.62.24,7.74,7.74,0,0,1,.75.57c.12,0,.24,0,.32.07s.1.19.24.18,0,.07,0,.11.13.3.33.31.21,0,.29.06a1.31,1.31,0,0,0,.46.35.21.21,0,0,1,.15.22.35.35,0,0,0,.06.14l-.14.15L64.06,39a1,1,0,0,1-.2-.15.61.61,0,0,0-.33-.17c-.16,0-.28-.09-.41-.15a.7.7,0,0,1-.36-.25.35.35,0,0,0,0-.37c-.07-.13-.12-.26-.33-.22l.06.56-.24.08-.35-.18a.77.77,0,0,1-.3,0l-.31-.1a1.29,1.29,0,0,0-.34,0l-.22-.22h-.21l0,.11h-.3c0-.12-.11-.12-.17-.17-.31-.27-.34-.26-.78-.19a.61.61,0,0,1-.49-.08v-.12L59,37.3c.16,0,.36.05.54-.08C59.47,37,59.57,36.68,59.23,36.55Zm-2.54,2.76a6,6,0,0,0-.25-.75c-.12,0-.14-.13-.17-.22l-.12-.26a1.16,1.16,0,0,1-.59-.25,5.82,5.82,0,0,0-.47-.36c-.13,0-.25.09-.39.12s-.25,0-.39,0a1.17,1.17,0,0,1-.42,0l-.12.2h-.48l-.14.22.07.38a.6.6,0,0,0,.54.21c.17.1.07.24.1.3a1.43,1.43,0,0,0,.24.28c.1.08.11.2.17.29a3.66,3.66,0,0,0,.26.42c.09.1.2.17.28.26a.44.44,0,0,1,.11.31.37.37,0,0,1-.13.33c-.08-.09-.18-.15-.22-.24s-.17-.17-.3-.2a.85.85,0,0,1-.17-.06V40c-.13-.21-.28-.41-.39-.63a.34.34,0,0,0-.23-.21,1.15,1.15,0,0,1-.4-.24,1.93,1.93,0,0,0-.21-.17.31.31,0,0,0-.24-.24l-.2.33-.34-.05-.34.52c.1.14,0,.28.07.42h-.17l-.23-.22-.06-.26.3-.32a1,1,0,0,0,.23-.38l.34-.23V38l.15-.24.27.15c.23-.08.23-.08.34-.31a1.34,1.34,0,0,1-.17-.31.28.28,0,0,0-.16-.19.69.69,0,0,0-.29-.07s-.1,0-.14.07a2,2,0,0,1,0,.42l-.39-.62.07-.11c-.06-.1-.09-.22-.23-.26a.26.26,0,0,1-.15-.14,1.75,1.75,0,0,0-.33-.39l-.12-.16a.38.38,0,0,0-.44-.19l-.29.14a.53.53,0,0,0-.47-.1.59.59,0,0,1-.38.23.15.15,0,0,0-.11.08c-.09.17-.26.29-.31.48a1.06,1.06,0,0,1-.12.2.43.43,0,0,0-.41.16l-.32-.11-.19.09V37l.14.08.32-.16v.35l-.11.08a.62.62,0,0,0,0,.24.23.23,0,0,1,0,.28c0,.05,0,.12,0,.17s0,0,0,.05l.09,0v-.2l.28-.09.2,1a1,1,0,0,0,.24.16.28.28,0,0,1,.19.16c.05.14.18.2.26.29a.41.41,0,0,1,.17.31.52.52,0,0,0,.17.4v.28c-.19.18-.16.45-.32.65l.2.32v.28l-.23.22v.09c0,.22.19.38.18.6,0,0,0,.06.05.1s0,0,0,.07.29.32.43.49a2.16,2.16,0,0,1-.05.56.42.42,0,0,0,.15.41c.16-.06.19-.19.25-.29a1.09,1.09,0,0,1-.05-.17c0-.07,0-.15,0-.21a.22.22,0,0,0,0-.23,1.55,1.55,0,0,1-.12-.42c0-.17-.22-.22-.32-.33v-.36c.17,0,.28.18.44.15s0,0,.07.07a2.18,2.18,0,0,0,0,.25,1.28,1.28,0,0,0,0,.27.94.94,0,0,1,.06.44.65.65,0,0,0,0,.13c0,.31.31.47.45.69h.34l.47-.31,0,0,.09-.19h.49c.11-.2.32-.17.5-.26l.3-.31a.55.55,0,0,0,.13-.18,1.6,1.6,0,0,1,.21-.41l-.29-.17v-.14a2.69,2.69,0,0,1,.28-.22c.1-.06.21-.09.31-.14.13.17.13.17,0,.28a.45.45,0,0,1-.2.21s0,0-.05.08l.16.15c.24,0,.32-.2.48-.25l.16-.32c.15-.09.27-.14.37-.21a4.86,4.86,0,0,0,.59-.42c.11-.09.27-.18.3-.34a.57.57,0,0,1,.2-.32,1.89,1.89,0,0,0,.5-.63v-.29c-.12,0-.14-.14-.18-.22ZM33.49,1.68l.38.08h.07L34,1.58l-.08-.16-.33-.09c-.15-.14-.08-.4-.32-.45L33,1.29v.15l-.14.3c-.38.21-.44.63-.65,1-.2,0-.23-.22-.43-.24,0,.08,0,.16,0,.2s0,.28-.05.42a.49.49,0,0,0,.1.4s0,.07,0,.11v.34l-.23.14a1.54,1.54,0,0,1-.24.1c0,.09,0,.16,0,.2s.11.17.17.26a.7.7,0,0,1-.11.47c0,.08-.09.17-.06.24a.91.91,0,0,1,.06.36,1.38,1.38,0,0,0,.07.26l.13.07L31.79,6V5.83l.14-.14h.28l.06.2L32,6a.44.44,0,0,0-.18.14,1.16,1.16,0,0,0-.13.41v.53A1.48,1.48,0,0,1,32,7.4c.05.11.18.2.13.36,0,0,0,0,0,0l.25.36a.62.62,0,0,0,.49.35.44.44,0,0,0,.31.32l.3-.06,0-.08.26-.08.18.18v.46h-.17l-.26-.19-.22.11a3.53,3.53,0,0,0,.67.89v.1a1.87,1.87,0,0,0,.47.23v.54l.06,0,.39.66-.12.26.13.25a6.13,6.13,0,0,1,.33-.72,4.08,4.08,0,0,0,.34-.73.25.25,0,0,0-.25.06,1.07,1.07,0,0,1-.22.15c-.05-.07-.2-.05-.2-.17l.36-.45-.1-.18H35l-.18.14c-.06-.1-.14-.17-.14-.25a.31.31,0,0,0-.2-.25,1,1,0,0,1-.15-.08V9.49h.24c.07,0,.13,0,.24.07a.85.85,0,0,0-.06-.13c0-.07-.13-.14-.13-.21a.38.38,0,0,0-.1-.25c-.07-.05-.06-.16-.17-.2s-.09-.19,0-.31A.76.76,0,0,0,34,8.07a1.42,1.42,0,0,0-.1-.44,1.36,1.36,0,0,1-.15-.41,1,1,0,0,0-.14-.3,1.3,1.3,0,0,1-.22-.46,1.09,1.09,0,0,1-.4-.68c-.1-.1-.06-.24-.11-.36a2.73,2.73,0,0,1-.14-.51c0-.18-.07-.41-.32-.46H32.1L32,4.13l.25-.21a2,2,0,0,1,.24-.85V2.86l.2-.06c.14.21.06.43.09.63l.17.25c0,.17,0,.37,0,.56a.29.29,0,0,0,.06.21,1.51,1.51,0,0,1,.27.59,3.16,3.16,0,0,1,.21.68s.05.09.08.14h.16l.14-.19c0-.06.17,0,.16-.16h.31l.09.1-.06.49.18.46c-.11,0,0,.19-.16.18s-.25.24-.21.41l.16.24h.15l-.06.45c0,.11.16.17.28.24a.53.53,0,0,1,.25.28l.41.2.34.46a.48.48,0,0,1-.28.38l-.08.25.08.17.16.08.17-.09c0-.25.21-.44.28-.68a1,1,0,0,0,.07-.38.7.7,0,0,1,0-.29.33.33,0,0,0,0-.36.55.55,0,0,1,0-.22l.11-.11V7.58l-.23-.11,0-.08c0-.12.13-.21.08-.34a3,3,0,0,1-.12-.58c-.28-.19-.33-.51-.47-.78-.14,0-.19-.15-.29-.22A.84.84,0,0,0,35,4.85c-.08-.16-.22-.27-.31-.43A1,1,0,0,1,34.48,4l.15-.12.07-.23c0-.06-.07-.13-.11-.18s-.12-.09-.21-.16l.13-.1h.17c.09.07.18.15.16.26l.29.33a.56.56,0,0,1,.3.24l-.07.15-.23,0c0,.08,0,.18,0,.21s.37.28.4.53a1.42,1.42,0,0,1,.29.47s.05.1.09.13a5.84,5.84,0,0,1,.39.48,1.57,1.57,0,0,1,.19.33c0,.08,0,.2.18.19s0-.11.06-.11.11-.11.16-.16.09-.3.14-.45a2.46,2.46,0,0,0,.08-.5l-.2-.39.21-.34a1.25,1.25,0,0,1-.06-.18,3.82,3.82,0,0,1-.31-.75c0-.05-.07-.09-.12-.15V3.18l-.07,0a1.89,1.89,0,0,1-.15-.33.67.67,0,0,0-.31-.45c-.1-.07-.12-.23-.27-.24-.05-.16-.19-.23-.3-.34s-.16-.27-.32-.33-.06-.07-.09-.11c-.16-.21-.31-.42-.47-.62L34.58.69l-.16.16v.34a0,0,0,0,1,0,0l.1.1,0,.15a.35.35,0,0,0,.09.06c.09.06.18.16.27.17s.11.19.19.25l.07.07V2.2l0,0H35.1C35,2,35,2,34.89,2a.15.15,0,0,0-.11.2l.29.24c-.12.22,0,.46-.08.68l-.09,0V3c-.13-.15-.24-.31-.37-.44s-.11-.39-.31-.48-.36.12-.56,0Zm4.93,57.11a1.7,1.7,0,0,0-.58-.81l-.19-.12c-.11,0-.07-.14-.12-.19l-.19-.2-.17.13-.06,0L37,57.49a1,1,0,0,0,0-.2.21.21,0,0,1,0-.28.48.48,0,0,0,.06-.33s0,0,0-.06l-.17-.1-.16.08.07.41-.29.17,0,.16c-.14,0-.24.17-.41.17a.91.91,0,0,0-.33.2c-.06.2-.23.24-.41.28v.28l.12.27-.15.24a1.42,1.42,0,0,1,.33.58,1.09,1.09,0,0,0,.72.25l.32.4.09-.16c-.08-.11,0-.26,0-.42.21,0,.41,0,.55.11a2.42,2.42,0,0,0,.12.23s0,.07,0,.1a.8.8,0,0,0,.29.59v.47c-.06.08-.14.13-.21.07s-.14-.1-.2-.16-.18-.28-.38-.29l-.34.12c-.08-.09-.17-.06-.25-.05a1.3,1.3,0,0,1-.15.42c-.1.14,0,.25,0,.36s.11.12.16.17v.27c-.26-.05-.2.19-.29.31l.3.26v.22l0,0,0,.15c-.17-.13-.34-.07-.47-.08l-.09.17-.17.25c-.07.07-.16.12-.24.19.09.06,0,.16.06.24a2.15,2.15,0,0,0,.11.25c.13-.18.35-.21.46-.4h.2l.24-.16c-.1-.15.1-.22.13-.37.18,0,.38,0,.52.11h.25l.14-.13v-.33l-.12-.14-.46-.09V62a1.27,1.27,0,0,1,.36-.12,1.49,1.49,0,0,1,.4.08l.22-.15H38l.1.16-.49.1-.08.09c.09.13.18.27.28.4s.11.06.15.08a.67.67,0,0,0,.32-.44c0-.23.21-.21.33-.27s.14,0,.22,0a1.93,1.93,0,0,1,.13.21,1.73,1.73,0,0,1,.1.24l-.23.3c0,.12.09.17.15.23l.37.09c.1.07.06.16.07.24s-.32.3-.29.53a.91.91,0,0,0,.58.07l.23-.27H40l.22-.23a.35.35,0,0,1,.29.17h.23c.12-.07.18-.18.3-.24a.3.3,0,0,0,.1-.41,1,1,0,0,0-.66-.65v-.3c-.18-.14-.42,0-.55-.2h-.6l-.11.12c-.14-.09-.3.19-.43-.05v-.44l.14-.21.61-.2a.5.5,0,0,0,.39.49l.44-.23v-.05l-.33-.09a.61.61,0,0,0-.29-.32l.11-.26a1.73,1.73,0,0,0,.69-.11.69.69,0,0,1,.35-.07s0,0,0,0l0-.14.16-.16a.4.4,0,0,0-.16-.43c-.12-.08-.18-.23-.29-.36s-.33-.26-.5-.41H40a1.06,1.06,0,0,1-.57.35,1.26,1.26,0,0,0-.28.19c0,.29.25.5.18.75l-.2.22h-.08L38.7,60l0-.06-.13-.26-.21-.14-.44.36h-.28l-.23-.15.09-.32.53-.09A.53.53,0,0,0,38.42,58.79ZM56.07,34.14a.7.7,0,0,1,.06-.24c.13-.19.28-.37.43-.58s0-.21.11-.3a.82.82,0,0,0,.27.06A1.19,1.19,0,0,0,57.2,33a.47.47,0,0,0-.14-.47l-.18-.76h-.16l-.28-.2v-.23c-.24-.13-.37-.36-.58-.52l-.23.14c0,.2-.12.28-.29.36v-.46c-.09,0-.12-.17-.28-.14l-.33.29a.25.25,0,0,1-.21-.07.35.35,0,0,0-.19-.1c-.13,0-.26,0-.38,0a3,3,0,0,1-.37-.07l-.09.22.33.25a1,1,0,0,1,.21.2,3.2,3.2,0,0,0,.49.61s0,.05,0,.07.09.18.17.26l.29-.09a.74.74,0,0,1,0-.46.55.55,0,0,1,.42.43l.43.07.13.06v.31c-.28.1-.26.12-.53,0l-.16-.2c-.13.08-.18.23-.34.21-.18.14-.39.26-.37.53l-.16.22a2,2,0,0,1,.56,0,.37.37,0,0,0,.33,0l.23-.36.4.08.15.2-.14.15H55.8a1.72,1.72,0,0,0-.21.12,1.56,1.56,0,0,0-.14.19l-.33-.15-.25.13V34h.3c.22.13.2.36.27.53s-.24.22-.34.38c-.07-.08-.15-.12-.18-.19a2.47,2.47,0,0,1-.06-.29c0-.14,0-.28-.07-.41s-.06-.07-.09-.1l-.14.08a.39.39,0,0,1-.17-.38l-.13-.14h-.33a2.48,2.48,0,0,1-.06.72s0,.1,0,.15.09.21.14.32l-.13.09c-.06.05-.14.1-.17.17a2.77,2.77,0,0,1-.35.85s0,0,0,0h0v.15l-.14.07.22.32.2-.06c.12.09,0,.22.06.33-.16,0-.33-.06-.46.1l.14.14h.25c.1-.16.32-.18.37-.38a1.06,1.06,0,0,0,0-.31c-.07-.15,0-.3,0-.45A1.1,1.1,0,0,0,54.1,35a.47.47,0,0,1,.09-.31c.13,0,.27-.18.38,0a.9.9,0,0,1-.06.46.66.66,0,0,0-.06.36,1.31,1.31,0,0,1,0,.4,1,1,0,0,0,0,.69l.42.05c.1-.25-.06-.47,0-.65l0-.12H55l.17.16a3.39,3.39,0,0,0,.33.66v.41l.33.34c0-.17,0-.31.11-.41a.45.45,0,0,0,.13-.44c-.09,0-.1-.15-.19-.21s-.08-.2-.13-.29a1.57,1.57,0,0,1-.08-.29l-.12-.3c.13-.23.27-.45.11-.72l.16-.1a2.87,2.87,0,0,1,.26,1.14,2.25,2.25,0,0,0,0,.26c0,.07.06.14.08.2h.25c.15-.18.38-.3.41-.53l-.06-.29c-.25,0-.33-.25-.46-.43,0,0,0-.1.08-.13s.1,0,.16,0a.82.82,0,0,0,.39.46h.17c.18-.16.06-.33,0-.48a2.89,2.89,0,0,0-.18-.44l.19-.28c0-.15.06-.34-.08-.48a.52.52,0,0,0-.45.09c0,.15.11.23.18.34s.07.12,0,.2A2,2,0,0,1,56.07,34.14ZM36.62,8.08c.23.21.26.23.54.11L37.8,8c.17,0,.37-.15.54,0,.2,0,.14-.27.27-.35.31.18.34.18.72-.19l.23.08L40,7.08h.47V7l.37-.4a.41.41,0,0,0,.37-.14l0-.15a.92.92,0,0,0,.63.1l.59-.67c0-.27.14-.39.35-.5V4.9A3.18,3.18,0,0,1,43,4.63c.07-.09,0-.2.07-.31l.27-.06.18-.21V3.81c-.14-.06-.29-.11-.43-.18a.33.33,0,0,0-.35,0,1.16,1.16,0,0,1-.09.14c-.09.08-.16.19-.28.23-.11.25-.35.3-.57.38a.76.76,0,0,0-.22.11c-.06.06-.17.07-.18.18a.56.56,0,0,0-.28.1s-.14,0-.16,0-.21.16-.33.21,0-.14-.07-.19a1,1,0,0,0-.1-.15l-1.56-.08a1.34,1.34,0,0,0-.46.09L38,4.89l-.18.18v.15l.23.19v.16l-.12.2c.22.09.41,0,.61,0l.57,0V5.62h.49a2.56,2.56,0,0,1,.91-.47v.14c-.16.11-.32.19-.45.3a4.78,4.78,0,0,0-.39.39h-.28l-.32.23h-.38c-.21.09-.15.34-.31.46s-.23,0-.32-.08V6.32l-.65.12-.17.22V7.1l-.39.57c-.06,0-.18,0-.21.07s-.11.1-.16.16l-.16.17v.17l.15-.16ZM31.19,61.72l.06,0a1.22,1.22,0,0,0,.19.12c.07,0,0,.14.13.16a1.28,1.28,0,0,1,.43.23l.11,0,.16-.08L32.22,62c.17-.12.41,0,.6-.14s.14-.23.23-.27.21-.23.28-.36.35.05.5-.08v-.55c-.07-.12-.34,0-.26-.26l.06-.12c.18,0,.3.17.47.12s.22-.24.35-.34a.29.29,0,1,1,0,.46l-.14.15v.17l.16.16a2.42,2.42,0,0,0,.71-.29h.28l.08.08v.35l.11.1.23-.15a.4.4,0,0,0-.17-.44c-.13-.07-.12-.2-.06-.32l-.08-.15L35.16,60l-.27-.35v-.16l-.41-.15V59l-.08-.09c-.13,0-.27,0-.39-.06a1.31,1.31,0,0,0-.12-.11c-.11-.1-.25-.05-.37-.07l-.05,0a.6.6,0,0,0-.45.57c-.13.17-.1.41-.27.56s0,.1,0,.17h.22l.1-.11h.07l.19.13v.26l-.08,0-.08.29c.07.17.22.31.16.52a.65.65,0,0,1-.3-.34l-.24-.12-.16,0a.8.8,0,0,0-.34-.73.42.42,0,0,1,.1-.34.56.56,0,0,0,0-.1l-.19-.08-.24.23v.95h-.09l-.05,0c-.06-.71-.07-.75-.21-1h-.26c-.17.14-.13.32-.14.45l-.1.2L31,60.21h-.28l-.2.16c.32.1.42.41.63.58a.84.84,0,0,1,.46.28l0,.14h-.41l-.13.07-.26-.29h-.12v.29l.17.26.26.08Zm4.2-11.78c-.09-.1-.22,0-.32,0s-.22,0-.34,0-.19.08-.28.12c-.13.34-.43.62-.31,1l.2.23a1,1,0,0,1,.58-.06l-.26.52c0,.17,0,.35.12.5,0,.16.1.27.13.41s0,.32.05.47a.39.39,0,0,0,.32.08.87.87,0,0,1,.57.11l.21-.14c0-.1-.06-.14-.09-.22s-.11-.09-.14-.14-.16-.06-.23-.1a.5.5,0,0,1,.22-.56c.24,0,.47.1.71.06,0,0,.09.06.13.09l-.18.4v.18l.07.08h.2l0-.11h.13c.09-.12.13-.26.21-.39s.13-.26.2-.38.15-.25.2-.38c-.13-.09-.19-.28-.35-.27L36.76,51v-.1a1.05,1.05,0,0,1-.11-.07,2.2,2.2,0,0,0-.24-.28.75.75,0,0,1-.26-.33.35.35,0,0,0-.26-.29C35.73,49.92,35.55,49.84,35.39,49.94Zm-3.43,4v.55l.16.22h.09l.43.36c.16,0,.35.07.49-.08a.41.41,0,0,0-.06-.36.63.63,0,0,0-.26-.2c-.12,0-.24-.11-.38-.07s0,0,0,0l-.09-.19a1.2,1.2,0,0,1,.24-.15,2.73,2.73,0,0,0,.48-.25v-.12l.17-.09h0l.19.15c-.11.19-.05.37-.07.54.27.07.2.34.33.49l.28.06.69-.73-.07-.15-.23,0-.15-.57h0a2.61,2.61,0,0,0-.17-.28,1,1,0,0,0-.24-.25c-.09,0-.13-.16-.21-.23a.34.34,0,0,1-.12-.12.89.89,0,0,1-.08-.17c-.06-.13-.08-.25.05-.35.1.1.32.08.34.28h.15v-.26l0,0-.06,0a.44.44,0,0,0-.21-.44l-.42.3a.48.48,0,0,0-.15-.07h-.58a.35.35,0,0,0-.13.05l-.35.19-.15.53-.46.29v.23c.07,0,.15,0,.18,0s.26,0,.29-.21l0,0h.35a.17.17,0,0,1,.07.23l-.44.15v.4Zm8.28,2.87.08-.26a.33.33,0,0,0-.27-.23.22.22,0,0,1-.19-.17,1.69,1.69,0,0,0-.22-.35c0-.09-.17-.14-.21-.22s-.18-.12-.23-.22h-.36c-.07.09-.19.13-.25.23-.16-.07-.16-.07-.3,0v.19l.17.1v.19c-.08.07-.13.2-.27.13l0-.1H38l-.18.25v.22l.27.14a1,1,0,0,0,.26.54l0,.31s0,0,0,0,0,0,0,.06l.63.15-.23.1-.07,0v.21a1.08,1.08,0,0,0,.18.25c.09.05.12.15.19.21h.31c.45-.41.33-.39.25-.66l.19-.27H40l.15.16V58h.21a1.15,1.15,0,0,0,.26-.65l-.13-.14v-.09Zm-5.11-1.63a.63.63,0,0,0,.2.58l.08-.06a.18.18,0,0,1,.13.2l-.19.15.32.35.68.11.29-.06,0-.11-.06-.21a.33.33,0,0,1-.22-.18c.09-.18.27-.21.39-.29h.42v.16l-.08,0-.06.26.07.13h.21l.18-.15-.07-.37.22-.08c.1-.17.24-.32.18-.56l-.16-.1a1.94,1.94,0,0,0-.47-.78V54c-.12-.12-.22-.25-.4-.26,0,0-.06,0-.06,0s-.18-.09-.2-.18h-.25a.39.39,0,0,0-.14.35l-.18.2-.24.09-.22-.12c-.17.07-.32.21-.52.18v.2l.33.27.08.46ZM39,49.93c-.08-.11-.16-.21-.23-.32s-.23-.15-.3-.28a.84.84,0,0,0-.27-.26,2.36,2.36,0,0,0-.35-.23h-.4c-.14,0-.27,0-.41-.06a.58.58,0,0,1-.31-.05.27.27,0,0,0-.27,0,6.61,6.61,0,0,0-.6.44l0,0a.28.28,0,0,0,0,.38c.08,0,.17,0,.23-.06l.26-.25s.12,0,.14.07a.61.61,0,0,0,.22.23.42.42,0,0,1,.18.21,2.21,2.21,0,0,0,.23.36v.33l.16.22h.18c.23.1.21.33.36.44v.36l.14.2h.18l.34-.29h.1l.14-.29-.1-.1-.33,0-.19-.13a.58.58,0,0,1-.1-.46c.22,0,.42,0,.61-.06l.21.27.06,0,.18-.15C38.94,50.35,39,50.13,39,49.93Zm-4.28,7.12v.27c-.15,0-.2.15-.3.23l.06.24h.2l.23-.15v-.3l.3-.19.16-.2a.31.31,0,0,0,0-.39H35l-.16-.46h-.18l-.27-.42a4.59,4.59,0,0,1-.47-.27.51.51,0,0,0-.44-.12,1.29,1.29,0,0,1-.17.16,3.41,3.41,0,0,0-.33.17c-.1.08-.15.24-.26.29a1.18,1.18,0,0,0-.2.17l.38,1.14c.07.15.34.16.4.39l.51.36H34a.48.48,0,0,1-.13-.43c-.15,0-.16-.23-.31-.25a0,0,0,0,1,0,0,.56.56,0,0,1,0-.13l.42.09a.61.61,0,0,1,.17,0h.19A.47.47,0,0,1,34.71,57.05Zm-4.25.37c.13.1.14.32.24.49s0,.34.05.5a1.15,1.15,0,0,0,.4.47v.21l.13.17h.32l0-.09.13-.06.36,0c.09-.09.14-.18.23-.22a.72.72,0,0,0,.41-.56l.25-.12.06-.27c-.17-.21-.29-.5-.63-.54-.1,0-.13-.1-.11-.22L32,57l-.41-.55a.84.84,0,0,0-.74,0l.08.8-.09.09h-.21c0-.16,0-.33-.09-.46h-.16l-.15.13v.29Zm9.14-6.76-.15.31.26.2L40,51l0,.19c0,.06,0,.14,0,.16s0,.14.05.21a1.27,1.27,0,0,1-.07.44c-.12,0-.19.09-.16.23s.17.31.4.32l.08-.23c.17,0,.17,0,.27.09v.35l-.09,0-.1.19.27.2a.5.5,0,0,0,.36,0l.5-.36h.21l.28-.41a.49.49,0,0,0-.43-.1l-.21.23c-.19,0-.22-.15-.31-.2v-.19c.19,0,.26-.23.36-.37a.61.61,0,0,1,.35.09c.15.07.3.19.45.15l.18-.15a4,4,0,0,0-.3-.29c-.09-.1-.13-.25-.28-.29-.16-.34-.5-.46-.77-.66v-.13l-.61-.13-.14.2.23.23-.06.13L40,51l.08-.21-.17-.14ZM58.77,34.94l-.4-.39c0-.11.06-.16.17-.19V34l-.25-.17H58l-.4.51a.73.73,0,0,0,.15.65h.3l.24.39.21.09.22-.11.26.11.25-.17a3.1,3.1,0,0,0,.56-.1,1.79,1.79,0,0,0,.44-.27,1.67,1.67,0,0,0,.34-.44c-.08-.06-.07-.18-.2-.21a3.5,3.5,0,0,1-.52-.25l-.06-.48-.12-.16c-.17,0-.31.13-.48.06l-.17-.33h-.24a.41.41,0,0,0,0,.5c.13,0,.19.15.27.22v.46l-.5.14c0,.07.07.16.11.17s.13.14.17.23Zm-19,19.22H40c.11-.07.08-.16.09-.28l-.27-.16a.24.24,0,0,1,0-.36L39.58,53l0-.05a.57.57,0,0,1-.25-.26c-.05-.07-.16-.11-.23-.16l-.13.12h-.28a.44.44,0,0,0-.23.06,1,1,0,0,1-.63.11h0l-.06,0V53l-.12,0a1.78,1.78,0,0,1,.08.45.47.47,0,0,0,.16.31c.17.14.22.36.36.52s0,0,0,0h.4c.15.23.24.51.58.47.06,0,.1-.1.15-.15s0,0,0,0L39.08,54l.16-.13ZM43,58.91h-.34l-.32.19L42.1,59v-.18a1,1,0,0,0,.32-.57l.52.08.27.25c.17-.19.1-.39.12-.58a1.87,1.87,0,0,1-.37-.47c-.05-.09-.16-.17-.21-.26s-.26-.06-.27-.23h0s-.09-.07-.12-.06a1.68,1.68,0,0,0-.46.17c-.11.08-.28.13-.32.3h-.07v.67l.11.11c0,.09,0,.22,0,.28a.54.54,0,0,0,0,.39c0,.15,0,.32.21.38s.15.12.23.15.28.19.46.06a5.21,5.21,0,0,0,.55-.32Zm-.29,2.63.11-.26c-.08-.07,0-.16,0-.27l.11-.06v-.26l-.37-.7-.12-.07a1,1,0,0,1-.54.1l-.15.18c-.16,0-.2.08-.27.15s.07.19,0,.31a.83.83,0,0,0-.07.32c.14.12.13.33.3.42-.1.13-.22.08-.33.09,0-.17-.17-.2-.31-.25v.34l.12.12a1.26,1.26,0,0,0,.24.94l.2.09.25-.14a.21.21,0,0,1,.11-.24c.2-.07.24-.26.37-.39l-.16-.24c-.12-.1-.31-.07-.4-.26l.45-.27c.14.08.09.3.27.35ZM34,62.25v.28h.1l.17.14v.19c-.05.05-.12.08-.17.13l-.12.18a.64.64,0,0,0,.24.3c.1.07.16.2.26.28a.73.73,0,0,0,.25.09l.16-.4-.35-.27s0,0,0-.09l.22-.1.27.31h.15l.06-.06.09-.33c.24-.08.31-.31.46-.46v-.27a3.78,3.78,0,0,0-.59-.79l-.31-.07-.35.15-.16.7Zm-4.22-2.93v.4a.9.9,0,0,0,.86-.07l.31-.21a1.6,1.6,0,0,0-.16-.23,7.26,7.26,0,0,1-.5-.63,3.1,3.1,0,0,1-.29-.5l-.26-.73-.62,0-.15.11-.08.73c.11.06.11.21.22.23l.08.4.17.17.32-.26a.56.56,0,0,0,.43.33s.06.07.08.1l-.1.11Zm.34-40.57a.47.47,0,0,1,.42.09l.08,0,.08,0v-.21c-.1,0-.14-.15-.25-.19s-.29-.29-.41-.44a.34.34,0,0,0-.47,0l-.22-.12a.39.39,0,0,1-.51.05.22.22,0,0,0-.13,0h-.33l-.16.2a1.44,1.44,0,0,1,.83.68l.23-.08.14-.26h.22l.06.15c-.14.05-.16.15-.17.27l.21.21v0l.57.26h.36l.18.29c.23,0,.38.17.6.25,0-.36-.28-.53-.43-.78-.06,0-.14,0-.17,0s-.18-.05-.29,0a.61.61,0,0,1-.26,0L30.09,19Zm24.23,13.5,0,0-.11-.19-.25.07-.2-.15c.09-.21.09-.28,0-.43a2.69,2.69,0,0,1-.26-.33c-.07-.15-.22-.17-.33-.26s-.17-.09-.31,0c-.07.28.22.39.27.61h-.25l-.47-.28a2.26,2.26,0,0,1-.26,0c-.08,0-.14-.11-.22,0l.37.56.4.19a1.66,1.66,0,0,1,.14.13l.84.55a2,2,0,0,1,.58,0l.18-.16Zm-16,30.88c-.19,0-.38-.23-.57-.06l-.24.37a2.12,2.12,0,0,1-.38-.08.42.42,0,0,0-.47,0,.33.33,0,0,0,.07.26,2.25,2.25,0,0,1,.27.43l.35.06.11-.16.35.16.31-.19h.21l.11.11h.14l.23.18.17-.08a.48.48,0,0,0,.07-.4.42.42,0,0,1-.4-.21v-.15Zm15.43-29c-.1,0-.21-.13-.33-.07s0,0,0,.05a2.21,2.21,0,0,1-.46.68s0,0,0,0-.11.19-.18.28-.12.23-.19.32a.6.6,0,0,0-.15.48l-.23.1-.08.16c.09,0,0,.17.17.17s.22.13.23.24.14.22.27.28l.28-.2V36.4l-.12-.12a.83.83,0,0,1,.11-.47,1.22,1.22,0,0,0,.08-.3c.17-.12.2-.3.28-.46l.28-.47C53.5,34.37,53.63,34.24,53.74,34.11ZM36.77,46l.13-.27-.13-.25V45l-.17-.17-.36.34a1.13,1.13,0,0,0,.11.7s0,0,0,.08a3.1,3.1,0,0,0,0,.91l-.07.13-.23.09.19.24,0,.1.1,0v.49l.11.09a.19.19,0,0,0,.11-.27.52.52,0,0,1,0-.27c0-.13,0-.25,0-.38l.3-.3c0-.08,0-.18,0-.24A.69.69,0,0,1,36.77,46Zm-7.62,7.5v-.29l-.25-.3h-.53a.38.38,0,0,0-.37-.11.23.23,0,0,1,0,.1.34.34,0,0,1-.12.06l.24.18h0l.08-.06.12,0c.2.08.2.08.28.21l.18,0-.13.15c-.24,0-.49.05-.72-.08l-.31.2a.32.32,0,0,1-.27-.21l-.08.32.15.17h.07a1,1,0,0,0,.65,0,.44.44,0,0,1,.32,0,.71.71,0,0,0,.37,0ZM53.92,28.64l-.11.07a1,1,0,0,0,.18.48c.09.11,0,.18,0,.27l.13.25c.29.23.58.14.85.15a1,1,0,0,0-.12-.69,1.14,1.14,0,0,1-.05-.23l.13-.1v-.2c-.17,0-.24.14-.36.16h-.48ZM28.8,41.84V42c.1.09.19.19.29.29l.3.27h.11V42.3l-.23-.22V42l-.12-.06v-.08c-.22-.28-.43-.52-.61-.78a1.8,1.8,0,0,0-.26-.29.42.42,0,0,1-.19-.32l-.21-.21-.27.07.08.31a1.3,1.3,0,0,1,.31.22.29.29,0,0,1,.1.25l0,0c.13,0,.14.15.2.24s.22.27.33.41S28.76,41.81,28.8,41.84Zm2.52,7.1a1.09,1.09,0,0,0,.34.5c.1.08.13.22.27.27a2.08,2.08,0,0,0,.44.45.42.42,0,0,0,.41.13c0-.08.08-.17.06-.24a1.78,1.78,0,0,0-.22-.46.63.63,0,0,0-.4-.24c-.07,0-.13-.09-.2-.14s-.1-.15-.21-.14c-.08-.15-.27-.11-.38-.21h0Zm1.46,13.75a1.12,1.12,0,0,1,.3.5c0,.05,0,.13.06.17a1.24,1.24,0,0,0,.45.43l.23.12.09-.2c-.18-.23-.47-.36-.43-.69l-.11-.09a.94.94,0,0,0-.19-.62H33l-.23.2ZM46.36,18.32a1.38,1.38,0,0,0-.78-.1,1.75,1.75,0,0,1-.33.05,1,1,0,0,1-.18-.07l-.33.33v.13l.28.14a1,1,0,0,0,.48-.09.72.72,0,0,1,.32-.08C46,18.61,46.16,18.45,46.36,18.32ZM19.93,35.78a1.4,1.4,0,0,0,.35-.64,1.42,1.42,0,0,0,.08-.4c0-.13,0-.29-.19-.35l-.27.21a1.29,1.29,0,0,0,0,.35c0,.13-.12.22,0,.38a.9.9,0,0,1,0,.37ZM43.18,5.34l.4-.1a2.42,2.42,0,0,1,.32-.69.43.43,0,0,0-.29-.28.61.61,0,0,0-.3.38.69.69,0,0,1-.22.43s0,.08,0,.09Zm.48,54.85a.63.63,0,0,0-.2-.63l-.08-.17H43l-.07.53a2,2,0,0,0,.52.42Zm-2.82-1.74-.36-.18-.08.08v.2l.35.5a.4.4,0,0,0,.46.18l-.08-.31A1.14,1.14,0,0,1,40.84,58.45Zm20.78-21c-.27,0-.36-.32-.64-.29l-.13.14a.65.65,0,0,0,.2.15c.1,0,0,.17.15.18s.09.11.13.16l.24.11.26-.11v-.14ZM36.08,64.37l.37-.3-.05-.29-.22-.13c-.12.07-.2.16-.19.27s-.11.08-.16.08a.47.47,0,0,1-.17,0L35.6,64A.74.74,0,0,0,36.08,64.37ZM60.4,37.47l.26-.28v-.08l-.3-.23H60.2l0-.1h-.25l-.07.08c.07.18.24.29.3.48A.2.2,0,0,0,60.4,37.47ZM33.72,62.2,34,62v-.35l-.22-.21-.23.17V62Zm5.62-10.75-.21-.14-.08.07a.89.89,0,0,0,.08.49l.27.13.17-.08ZM21.42,34.85c-.07,0-.19-.08-.22-.16s-.16-.16-.21-.26h-.12l-.07.13a.31.31,0,0,0,.24.33c.12,0,.21.22.38.11Zm8.36,8.25c.13,0,.25.19.43.09,0-.18-.12-.28-.22-.39a.32.32,0,0,0-.36-.09v.18Zm5.54,6,.16-.14v-.17l-.14-.14h-.27v.45Zm2.56,3.19.14.2c.16,0,.2-.08.26-.14v-.24l-.16-.15-.24.15ZM57.29,35.67c.06.1.09.17.13.24s.12.14.19.22l.23,0v-.3l-.34-.2ZM27.87,17.93a1.34,1.34,0,0,0-.2,0l-.32.08s0,0,0,0l0,.07.21.15h.39Zm26.88,7.45.1-.1V25c-.1-.15-.16-.34-.29-.36l-.21.08.32.4ZM39.89,53.25l.18.33c.1,0,.2,0,.26-.08a.49.49,0,0,0-.1-.41Zm-17-17.07-.38-.46h-.14V36C22.55,36,22.66,36.23,22.89,36.18ZM31.61,52l-.31-.09-.08.16c.06.07.06.24.2.21l.19-.15Zm2.56,6.14h-.23l.15.33h.28V58.3ZM37.56,5.86h.17l0,0,.14-.05-.17-.26h-.19v.27ZM36.11,17.23H36l-.14.33h.28l.1-.1Zm7.16,39.84v.12c.08.06.14.17.26.21l.09-.2a.41.41,0,0,0-.2-.21ZM57.48,33.52c.05.14.12.17.22.15l.15-.15,0-.24Zm8.61,5.91.08-.06.1,0v-.19c-.14-.1-.18-.1-.24,0a.23.23,0,0,0,0,.24Zm-43.2-26.5.08-.16,0,0v-.22l-.2-.06-.08.17Zm-5.39.21.13.2h.22v-.15l-.24-.14ZM43.9,58V57.7l-.07-.07h0c-.11.25-.1.33,0,.39Zm9.88-20.54-.23-.12-.1.1.19.17ZM33,50.54l-.09.12c.15.14.15.14.31,0ZM39.9,50c-.16-.09-.23,0-.33,0l0,.08h.21Zm1.33,8.17c-.06-.12-.13-.16-.24-.11v.14l.15.07ZM26.4,35h-.18l0,.15h.16Zm8-33.5-.19.19.21.09Zm2.7,44.61,0,.23.19-.21Zm.23,6.92,0,.11h.16v-.1Zm-6.5-8.7v-.22l-.13,0ZM42.36,52.5l-.18.13h.21ZM38.1,54.84c.08,0,.18-.05.09-.16ZM18,33.52v.1l.15,0Zm2.61.61v-.05l-.1,0v0ZM35.81,60h0V60h0Zm5,.77h0v.05h0Zm-11.5-6h0v0h0Z"/><path class="cls-1" d="M14.4,33.58l.12.13c0,.17-.18.11-.27.18L14,33.81a.82.82,0,0,1-.47.1L13,33.67a.55.55,0,0,1-.18-.06,4.65,4.65,0,0,0-.63-.32.54.54,0,0,0-.2,0l0-.09h-.19L11.62,33h-.25v0l-.28-.09a2.61,2.61,0,0,1-.27-.06c-.09,0-.19-.12-.27-.1a.32.32,0,0,1-.25-.07h-.18a.48.48,0,0,1-.35-.08.16.16,0,0,0-.18,0c-.18.11-.36,0-.52.06l-.47-.24H8.23c-.16-.08-.28-.22-.47-.22l-.15.07c.12.12.07.34.27.44a.37.37,0,0,0,.28-.05,2.16,2.16,0,0,0,.78.29,1.29,1.29,0,0,1,.21.06c.24.13.47.27.7.41h.29a4.21,4.21,0,0,1,.45.28c.12.11.31.12.45.29l-.29,0c-.07,0-.14-.07-.18-.12s-.2,0-.27-.12a4.1,4.1,0,0,1-.64-.06,2.71,2.71,0,0,0-.46-.18.59.59,0,0,1-.3-.2,1.9,1.9,0,0,0-.49-.3c-.1-.08-.17,0-.26,0l-.23-.12H7.61l-.19.34H7.18l-.26-.14c-.1-.18-.26-.36-.39-.56a3.68,3.68,0,0,1-.39-.63H5.87l-.14.13v.34a2.3,2.3,0,0,0-.46.78c0,.11-.11.15-.19.23L5,33.2c.08-.12.15-.25.24-.37a.8.8,0,0,0,.18-.54c0-.09,0-.19,0-.31s-.25,0-.39,0a.36.36,0,0,1-.33,0,.25.25,0,0,0-.19,0A.81.81,0,0,1,4,32a.52.52,0,0,0-.17,0c-.38,0-.77,0-1.15,0a2.28,2.28,0,0,0-.57.1.66.66,0,0,1-.2,0,1.62,1.62,0,0,0-.53,0,.32.32,0,0,1-.25,0,1.28,1.28,0,0,0-.37-.07l-.2.1c-.3,0-.32-.31-.52-.42v-.37a7.38,7.38,0,0,1,.31-.72c.09-.23.23-.44.34-.66,0,.07.08.16.13.17a.22.22,0,0,1,.16.17l-.24,0-.13,1,.13.24h.44l.11-.11h.46a1,1,0,0,0,.4-.1,1.77,1.77,0,0,1,.85-.2A.89.89,0,0,0,3.44,31c.13-.07.27-.1.4-.17a1.5,1.5,0,0,1,.45-.09l0,.09a5,5,0,0,1,.51.17.53.53,0,0,0,.24.06c.11,0,.22,0,.32,0l.13.33h.29c.14-.07.14-.25.22-.41l.48.09a1.24,1.24,0,0,0,.16,0,.87.87,0,0,1,.56.26s.11,0,.16.05a4.63,4.63,0,0,0,.82.27,1.25,1.25,0,0,0,.39,0c.14.14.36.14.54.23a0,0,0,0,0,.05,0c.16-.07.35-.08.41-.3a1.71,1.71,0,0,0,.71.07l.54.46h.3l.3.16c0,.16.2,0,.21.15.26-.13.51,0,.76-.08l.21-.11.41.34L13,33l.31.16.25-.25.28-.25c0-.25-.21-.39-.38-.57h-.31l-.07-.12h-.22l-.09.11h-.19c-.09-.07-.18-.2-.35-.17l-.2-.22.09,0,0,0c.09,0,.19,0,.26,0s.24,0,.35.07a1,1,0,0,1,.19.11l.32-.05a1.69,1.69,0,0,0,.34.09.5.5,0,0,1,.32.13,1.05,1.05,0,0,1,.54.13c0,.1,0,.22.06.3s0,.1,0,.11,0,.2,0,.3C14.39,33,14.4,33.31,14.4,33.58ZM4.48,31.05c.07.15.12.29.29.35A.34.34,0,0,0,4.65,31Zm8.27,1.75h-.22v.1h.22Z"/><path class="cls-1" d="M25.93,45.31c0-.16,0-.32,0-.48s-.05-.27-.07-.43h.22a1.73,1.73,0,0,1,.15.87c.09.11.2.18.22.27s0,.2.18.22v.15a.83.83,0,0,0,.33.34c.12.1.16.26.29.37h.09a2.35,2.35,0,0,0,.26.22.94.94,0,0,1,.37.37,2.43,2.43,0,0,0,.14.2,1.88,1.88,0,0,1,.16.23c.08.16.18.31.26.48a1,1,0,0,1,.44.4l-.09.1a1.43,1.43,0,0,1-.21-.12.18.18,0,0,0-.22,0,1.33,1.33,0,0,0,.22.57c.12.17.14.4.31.54v.25L28.8,50a1.59,1.59,0,0,0-.34-.06c-.12,0-.26-.08-.34.05a1,1,0,0,1-.2-.06,1.31,1.31,0,0,1-.12-.11.72.72,0,0,0-.52,0c-.14,0-.22.14-.35.17v.26c.42.13.83.26,1,.77l.38.15c.16.16.4.24.59.43l.39.08a.4.4,0,0,0,.38.27.94.94,0,0,1,.48.3l-.16.18a.74.74,0,0,0-.23-.05.35.35,0,0,1-.26-.09c-.2-.17-.48-.17-.68-.32s-.37-.2-.56-.28a1.3,1.3,0,0,1-.26-.14c-.15-.11-.36-.15-.44-.36s-.09-.1-.15-.16h-.19l-.13.17v.21l.29.29-.17.09A5.87,5.87,0,0,0,26,51.4l.05-.21h.64l.12-.19a.74.74,0,0,0-.35-.85.66.66,0,0,1-.24,0c-.34-.06-.34-.08-.59,0a2.77,2.77,0,0,1-.72.06l-1.12-.76s0,0,0-.06h-.14a1.87,1.87,0,0,0-.28-.35c-.11-.12-.23-.24-.35-.35a.4.4,0,0,1-.1-.28.29.29,0,0,0-.23-.32c0-.18-.17-.26-.18-.43a1.89,1.89,0,0,1-.28-.17,1.28,1.28,0,0,0-.54-.33,1.82,1.82,0,0,1-.41-.27.93.93,0,0,0-.43-.19.87.87,0,0,0-.93-.41.69.69,0,0,0-.4-.29c-.15-.05-.29-.08-.32-.28h.09l0-.06h.38a.37.37,0,0,0,.3.12.21.21,0,0,1,.13,0,2,2,0,0,0,.39.19c.14,0,.24.11.37.15v.07l0,0c.21,0,.35.15.54.18s.34.17.54.18.15.16.28.11c.17.17.44.18.61.35l.07.05c.08.1.2.16.28.25a.41.41,0,0,0,.14.1l.14.42.29.24s.06,0,.08,0,.42.1.55.29c.36,0,.7.1,1.06.06.07,0,.14,0,.21,0a1.05,1.05,0,0,0,.46-.09.8.8,0,0,1,.55,0,.88.88,0,0,0,.54.18l.19.19v.19a1.35,1.35,0,0,1,.85.49c.21,0,.24-.08.26-.34l-.6-.59h-.05l-.45-.33L27.32,48c.24-.08.39.12.58.16,0-.26,0-.25-.14-.51a2.49,2.49,0,0,0-.41-.5c-.15-.14-.31-.27-.47-.4a1.53,1.53,0,0,1-.56-.9,3.1,3.1,0,0,0-.18-.26A2.65,2.65,0,0,0,25.93,45.31Zm.69,3.95c0,.14.15.19.22.29l.24,0C27,49.35,26.84,49.22,26.62,49.26ZM26.25,49c.07.21.07.21.23.1Zm-.92.65,0,.05h.17l0-.22ZM23.6,48.59h.22V48.5H23.6Z"/><path class="cls-1" d="M51.34,21.92a.8.8,0,0,0-.06-.17l.17-.31s.08,0,.1,0a1.51,1.51,0,0,1,.69-.32,3.26,3.26,0,0,1,.45-.05c.13,0,.25-.12.4-.09h.07c0,.16-.15.14-.19.2l-.17.36.15.2-.13.36.17.32v.29a1.06,1.06,0,0,1-.5,0,.32.32,0,0,0-.32,0c-.1.08-.21.14-.35.24h-.39c0,.06,0,.15-.08.21s-.08.14-.12.21-.07.13-.12.23v.28a.3.3,0,0,1-.06.24.41.41,0,0,0,0,.3l.15.3a1.64,1.64,0,0,1,.62.5l.07.69a1.1,1.1,0,0,0-.14-.15c-.05-.05-.1-.12-.15-.11s-.07-.1-.12-.14a.37.37,0,0,1-.13-.11.83.83,0,0,0-.24-.42s-.1.06-.12.11a.72.72,0,0,1-.25.3.42.42,0,0,0-.16.23c0,.15-.19.24-.2.41s-.11.08-.15.14-.17.28-.26.42a1.94,1.94,0,0,1,.18.49l-.06.14h-.25c-.07.17,0,.31,0,.46s-.2.26-.19.42l.2.18-.08.39-.29.1a.49.49,0,0,0-.13.28,1.08,1.08,0,0,1-.11.28.34.34,0,0,0,.28.26.43.43,0,0,1,.31.35,3.37,3.37,0,0,0,.13.38h.15v.42c.08.06.18.1.17.14s.1.07.13.12v.12a2.83,2.83,0,0,0,.25.24c.06.05.14.13.21.13a.55.55,0,0,1,.4.18s0,0,0,0a.65.65,0,0,1,0,.59c-.27,0-.31-.23-.42-.4H50.6l-.24.28v.19l-.27.22-.26-.23h-.39c0,.11-.1.21-.25.24V32.4a.92.92,0,0,0,.48-.53h.26c.09.06.15.19.27.23l.05-.06a.24.24,0,0,0-.06-.09,2.37,2.37,0,0,1-.33-.38.35.35,0,0,0-.18-.13c-.25-.11-.33-.36-.49-.55,0-.15-.06-.21-.2-.21s-.06,0-.08-.06l-.15.08-.12-.18c.09-.12.16-.21.3-.19a.52.52,0,0,0-.07-.41,7.24,7.24,0,0,0-.38-.73V29a1.25,1.25,0,0,0-.12-.17.68.68,0,0,0-.36-.23,1.31,1.31,0,0,0-.27-.06c-.1,0-.18-.05-.27-.05a.35.35,0,0,1-.22-.1s-.09,0-.07,0L47,28.19a.4.4,0,0,1,.26-.3l.15-.36h.42l.27.12c.22-.11.25-.35.43-.5l.16.19.17.05c.12-.27.11-.29-.21-.53a.6.6,0,0,1,.11-.45.32.32,0,0,1,.21-.18,6.66,6.66,0,0,0,.39-.86c.08-.22.18-.45.27-.67a.28.28,0,0,0,0-.09c0-.24.09-.46.06-.7l.08,0,.16.32-.08.9c-.08,0-.09.14-.12.23s-.12.11-.1.22a.21.21,0,0,1,0,.1,1.53,1.53,0,0,0-.18.39c0,.09-.17,0-.13.15a.4.4,0,0,0-.22.22c0,.11-.1.2-.15.31l.11.09c.26,0,.34-.19.43-.37a.68.68,0,0,0,.12-.24c0-.11.15-.09.14-.2s0-.05.06-.06.11,0,.16-.05.19-.17.22-.28.18-.28.26-.42a1.16,1.16,0,0,0,.22-.55v-1a1.64,1.64,0,0,0-.37-.51c.07-.17.25-.15.34-.25h.29c.14-.21.28-.41.2-.64l.15-.3a.32.32,0,0,1,.14,0,2.25,2.25,0,0,0,.16.3l.26-.18c0-.05,0-.11.05-.18s0-.05,0-.07h-.22A1.47,1.47,0,0,1,51.34,21.92Zm-3.36,6L48,28l.09,0s-.07,0,0,0l0,.14.18-.14A.74.74,0,0,1,48,27.92Zm3.94-6.35c0,.05,0,.07,0,.09a2.5,2.5,0,0,0,.22.24c.12.1,0,.23.07.34s.14.09.27,0a1.54,1.54,0,0,0-.07-.67l-.13-.13h-.23l0,.05Zm-2.85,6c0,.13,0,.2.12.23a.16.16,0,0,0,.09-.23Zm.61,3.1h.06l0-.15c-.08-.06-.11-.16-.25-.16Zm2-8v-.22h-.1v.22Zm-1.75,8.16v0h.06v0Z"/><path class="cls-1" d="M34.66,46.88l-.11.1c0,.08,0,.17,0,.24s-.11.25-.27.28l-.09.33H34l-.12-.18.06-.21h.33l.07-.4c-.24-.07-.37.17-.59.16V47c-.16-.18-.4-.29-.48-.61v-.58L33,45.56a1.92,1.92,0,0,0-.11-.55.13.13,0,0,1,0-.06,1.13,1.13,0,0,0-.17-.6,1.36,1.36,0,0,1-.11-.28.4.4,0,0,1,.11-.41v-.18a.52.52,0,0,1-.24-.46c-.09-.07,0-.23-.16-.28-.08-.2-.16-.4-.25-.6a1.88,1.88,0,0,0-.73-1c-.05,0-.07-.12-.15-.14s0-.14-.14-.15-.08-.11-.13-.17h-.11c-.07-.25-.34-.29-.46-.47h-.11c-.05-.07-.09-.15-.15-.17a1,1,0,0,1-.28-.11c-.07,0-.18,0-.22-.17s-.09,0-.13,0-.27-.1-.34-.24a1.59,1.59,0,0,1-.36.06,2.13,2.13,0,0,1-.33-.11H28.2a.81.81,0,0,1-.65-.4,1.25,1.25,0,0,0-.47-.47.69.69,0,0,0-.15-.07V38.2l.13-.12h0a.27.27,0,0,1,.21.2c0,.18.22.27.27.45l.69.31c.14-.09.34,0,.48-.06a2.84,2.84,0,0,1,.5-.06l.17.21.37-.11.13.06-.07.18.06,0a.68.68,0,0,1,.52-.1l.1.16a1,1,0,0,1,.53.37l.11-.06a.25.25,0,0,0,.09,0h.15c.11.14-.05.2-.11.31l.11.05a1.81,1.81,0,0,1,.19.4c0,.09.19,0,.15.17A.49.49,0,0,1,32,41a.44.44,0,0,0,.14.22c.06.07.16.13.19.22a1.07,1.07,0,0,0,.33.46.77.77,0,0,0,.07.19,1.67,1.67,0,0,1,.34.45,2.12,2.12,0,0,0,.55.52v.3c.09.17.18.31.26.47a.56.56,0,0,1,.1.28.58.58,0,0,0,.11.24,1.67,1.67,0,0,0,.44.44c.06.11.15.22,0,.38s0,.2,0,.31a.85.85,0,0,1,.17.54,2.3,2.3,0,0,0-.05.45Zm-.57-1c-.12-.15-.06-.31-.08-.46s0-.29-.07-.43l-.09,0a3.58,3.58,0,0,0-.3-.49.35.35,0,0,1-.06-.18.75.75,0,0,0-.28-.49H33v.4a1.51,1.51,0,0,0,.06.15c.13.16.19.23.17.34,0,.31.14.58.12.89.12.06,0,.19.09.28a.92.92,0,0,1,0,.34.05.05,0,0,0,0,0h.13l.1-.28H34Zm0,.67L34,46.43l0,0,0,.17Z"/><path class="cls-1" d="M18,11.65a.45.45,0,0,0,.26.48.46.46,0,0,1,.21.38.5.5,0,0,1-.47-.17c-.16-.06-.33-.07-.42-.16a1.94,1.94,0,0,1-.26-.23h-.06l-.31.13v.18l-.09.09H16.7a3.08,3.08,0,0,0-.35-.48,2,2,0,0,1-.44-.44l.14-.25a3.19,3.19,0,0,0-.3-.42.62.62,0,0,1-.17-.6,3.28,3.28,0,0,1,.31.21c.09.09.14.23.24.28s.16.15.24.2l.07.23-.11.31.24.2h.14l.11.12a.36.36,0,0,0,.29-.09c.07,0,.11-.15.21-.17v-.19a1.15,1.15,0,0,1-.19-.14A.77.77,0,0,1,17,10.9v-.19l-.21-.07c-.07-.23-.35-.25-.45-.45H16.2a3.86,3.86,0,0,1-.53-.71L15,9.56l-.09-.17a1.94,1.94,0,0,1,.05-.2l.07-.2-.3-.27V8.44a.79.79,0,0,1,.66.14.27.27,0,0,0,.25.09h.22a3.84,3.84,0,0,0,.58.28,3.08,3.08,0,0,1,.58.2l.46-.33.56.41a.12.12,0,0,0,.18-.05c.05-.13.16-.19.24-.31a1,1,0,0,1,.27.15c.08.08.21.11.25.23.14,0,.21.09.3.14.36.21.73.41,1.07.65a.5.5,0,0,0,.16.05l.2.21H21l.26-.34h.32c.23.18.51.29.73.47s.58.38.83.62a1.28,1.28,0,0,0,.4.25,2.12,2.12,0,0,0,.38.08.45.45,0,0,0,0-.4.3.3,0,0,1-.05-.24l.08-.08h.19a1.22,1.22,0,0,0,.88.48c.1.17.32.22.5.32a2.26,2.26,0,0,0,.5.16.14.14,0,0,0,0,.09c.23.13.4.36.67.44a.47.47,0,0,1,.14.14.47.47,0,0,0,.45.18h.15c.1.14.1.14,0,.52h-.27c0-.1-.17-.08-.22-.21s-.15-.13-.23-.18-.19-.07-.2-.12-.12-.07-.17-.12a.33.33,0,0,0-.21-.11c-.17,0-.25-.16-.36-.25a2.1,2.1,0,0,0-.53-.29.3.3,0,0,1-.1,0c-.06-.11-.17-.06-.26-.08l-.23-.23h-.36l-.15.58h-.25c-.08-.13-.31-.13-.33-.33l-.5-.15a4,4,0,0,0-1.09-.8h-.12l-.1-.12-.08-.11h-.19l-.1.15,0,0v.27l-.25.15-.1-.1-.12-.06v-.13l-.17,0v-.08s0,0-.05,0a.84.84,0,0,1-.71-.36,2.46,2.46,0,0,0-.52-.34,2.37,2.37,0,0,1-.68-.41h-.18l-.27.41A1,1,0,0,1,18,9.67c-.05-.07-.12-.11-.16-.19s-.15-.11-.22-.17-.16,0-.25.06l-.15.22c-.24.08-.4-.1-.6-.17a1.15,1.15,0,0,1-.52-.34h-.28l-.18.1a2.83,2.83,0,0,1,.45.47,3.29,3.29,0,0,0,.49.42,1.92,1.92,0,0,0,.22.18l.23.1.1.29a.35.35,0,0,1,.29.21.74.74,0,0,0,.3.4s0,.06.05.09Z"/><path class="cls-1" d="M1.33,29.87a.28.28,0,0,1,.18-.25c.09,0,.1-.17.22-.17A2.44,2.44,0,0,0,2,29.39a1.6,1.6,0,0,0,.31-.1,1.1,1.1,0,0,1,.56-.13c.24,0,.46-.09.68-.05a3.2,3.2,0,0,1,.69.11l.07.06h.34a.73.73,0,0,1,.28.4,5.88,5.88,0,0,0,.67.2,3.52,3.52,0,0,0,.56,0A1.64,1.64,0,0,1,7,30.2a2.21,2.21,0,0,0,.42.18.22.22,0,0,0,.14,0,.69.69,0,0,1,.45,0c.22,0,.39.16.6.2l.42.11a5,5,0,0,1,.55.16A1.53,1.53,0,0,1,10,31a.55.55,0,0,0,.4.07s.06,0,.08,0,.32,0,.5.06l0,.09c.11,0,.21,0,.25,0s.36.13.43.36c-.11,0-.19.16-.34,0s-.2,0-.29-.07-.2-.12-.32-.15a1,1,0,0,0-.41-.08L10,31.21a.75.75,0,0,1-.46-.06c-.14-.1-.31-.12-.45-.22l-.89-.08a1.22,1.22,0,0,0-.76-.23,2.42,2.42,0,0,1-.65-.13.58.58,0,0,0-.18,0,1.71,1.71,0,0,1-.55-.09,1.83,1.83,0,0,0-.46-.07c-.16,0-.3-.08-.45-.08a.18.18,0,0,1-.09,0L4.84,30c-.18,0-.29.2-.47.19-.12.14-.24,0-.36,0a1.35,1.35,0,0,0-.5-.27.62.62,0,0,1-.18-.13l-.09-.26-.12,0L3,29.45c-.13.12-.32.11-.49.17a.72.72,0,0,1-.54-.06l-.4.31Z"/><path class="cls-1" d="M46.43,31.89V31.7l.16-.14a1.25,1.25,0,0,1,.74.15,2.25,2.25,0,0,0,.59.26l.2.08a.25.25,0,0,0,.17.27.72.72,0,0,1,.37.32c0,.08.17.13.27.17a5.36,5.36,0,0,1,.53.28c.18,0,.21-.22.34-.29H50l.11.1h.25l.07-.17.21.41.11,0-.15.44h-.13c-.09-.26-.32-.23-.53-.23l0,0a.53.53,0,0,0,0,.13.42.42,0,0,1-.16,0l-.13,0a1.62,1.62,0,0,1-.69-.26l-.18.08v.27c-.06,0-.11,0-.14,0a1.53,1.53,0,0,1-.21-.14.53.53,0,0,0-.63,0h-.41l-.14-.15v-.16c.13-.07.21-.23.4-.21h.7v-.22l-.35-.25a3.64,3.64,0,0,0-.95-.41,1.09,1.09,0,0,0-.47-.12S46.46,31.92,46.43,31.89Z"/><path class="cls-1" d="M15.68,32.57a.39.39,0,0,0,.2.32.53.53,0,0,1,.24.25,2.29,2.29,0,0,0,.27.27v.18l-.12,0v.13l-.21.07-.13-.07c0-.18-.18-.3-.36-.39v-.29l-.2.07-.17.69a.62.62,0,0,1-.45-.07,1.92,1.92,0,0,1,.18-.76l-.08-.79-.11,0,.09-.08A.75.75,0,0,1,15.68,32.57Z"/><path class="cls-1" d="M5.39,34.08l-.09.41a.51.51,0,0,0,0,.24,5,5,0,0,1,.05,1.09.31.31,0,0,1,0,.2l-.06.18L5,35.93a1,1,0,0,0,0-.38c-.06-.11,0-.24-.11-.34s0-.07,0-.11a.63.63,0,0,0,0-.3.34.34,0,0,1,0-.27A.81.81,0,0,0,5,34.09,2,2,0,0,1,5,33.77c.11-.05.19-.18.33-.17s.21-.14.27-.26a2,2,0,0,1,.43-.49.44.44,0,0,1,.1-.08l0,.08a1.26,1.26,0,0,1-.44.78,1.9,1.9,0,0,0-.38.42Z"/><path class="cls-1" d="M29.56,48.67c.06.08.12.19.2.28s.1.14.21.13.06,0,.1.05a1.77,1.77,0,0,0,.32.21.54.54,0,0,1,.28.23c.07.17.2.21.34.28l.13.21v.17l-.25,0L30.68,50a.2.2,0,0,1,0-.08l-.7-.34-.16.23.12.32c-.2,0-.32-.1-.48-.12,0-.21.21-.34.12-.55l-.4-.51a.32.32,0,0,1,.06-.27Z"/><path class="cls-1" d="M48.46,35.34l.37-.27v-.2l-.22-.21-.29.19-.08-.13.21-.32,0,.14c.17,0,.36,0,.58,0,0,.07,0,.15,0,.18S49,34.88,49,35l.19.31-.1.22c-.2,0-.33.16-.5.16a1.62,1.62,0,0,0-.5.15,2.83,2.83,0,0,0-.52.14l-.34-.14a.37.37,0,0,1-.1-.34l.67-.13.11.17c.07-.1,0-.24.11-.29S48.29,35.24,48.46,35.34Z"/><path class="cls-1" d="M42.09,8.3a1,1,0,0,0-.54.24h-.21V8.32a8.2,8.2,0,0,1,.72-.57,1.88,1.88,0,0,0,.26-.22.49.49,0,0,1,.54-.12l.13,0,.91.07v.16l-.44.23a1.35,1.35,0,0,1-.67-.11A1.54,1.54,0,0,0,42.09,8.3Z"/><path class="cls-1" d="M33.14,38.23a.67.67,0,0,1-.35,0c-.18-.08-.38-.12-.57-.19a.7.7,0,0,1-.35-.35,2.31,2.31,0,0,0-.18-.35,1.19,1.19,0,0,0-.62-.46,1.12,1.12,0,0,0-.26-.08.16.16,0,0,1,.06-.21l.38.07,0,0c.58.3.43.2.78.62a1.36,1.36,0,0,0,.12.12,1,1,0,0,1,.2.24.85.85,0,0,0,.53.33C33.08,38,33.11,38,33.14,38.23Z"/><path class="cls-1" d="M15.49,11.08l0,0L15.37,11h-.16a3.08,3.08,0,0,0-.72-.47c-.11-.05-.19-.1-.22-.22a.55.55,0,0,1-.41-.43L14,9.66l-.19-.2V9.33c.13,0,.24-.11.38-.07a2.31,2.31,0,0,1,.35.14c-.12.2-.37.18-.48.35.07.17.23.24.39.33s.33.09.47.22a.8.8,0,0,1,.13.13c0,.08.12.13.22.23h.1c0,.2.25.2.35.38Z"/><path class="cls-1" d="M51.65,27.79a.77.77,0,0,0-.54-.7,1.19,1.19,0,0,0,0-.42,2.81,2.81,0,0,1-.05-.64c.11-.06.17,0,.24.06v.18l.12.09v.2c.16.06.15.25.24.35s.08.32.2.46a1.5,1.5,0,0,1,.13.46L51.9,28C51.84,28,51.84,28,51.65,27.79Z"/><path class="cls-1" d="M36.64,31.31l.34-.14.13.06v.28c0,.23-.28.25-.35.38l-.45.15v.11l-.16.17h-.28c0-.24,0-.36.34-.45A1.52,1.52,0,0,1,36.64,31.31Z"/><path class="cls-1" d="M56.14,27.48c.08.1.16.13.19.24a1.39,1.39,0,0,0,.11.21c.1,0,.19,0,.27-.06l.2.27c-.18.17-.4,0-.59.1l-.4.14v.07h-.22v-.2a1.81,1.81,0,0,0,.26-.33C56,27.79,56.05,27.65,56.14,27.48Z"/><path class="cls-1" d="M50.12,27.43l.1-.09a.2.2,0,0,1,.08,0,2.39,2.39,0,0,1,.13.21.18.18,0,0,0,.16-.2c.08,0,.16,0,.19.07a.89.89,0,0,1,.16.48c0,.08,0,.16-.1.22l-.38-.3-.26.42A2.2,2.2,0,0,1,50.12,27.43Z"/><path class="cls-1" d="M39.82,48.14h-.31l-.41-.23c.22,0,.37-.15.52,0a.63.63,0,0,1,.22,0c.08,0,.14-.05.21-.06a.66.66,0,0,1,.2,0h.24c.12.21-.15.33-.09.53h-.33Z"/><path class="cls-1" d="M29.1,45.06l.16-.16,0,.21a1,1,0,0,0,.34.34.91.91,0,0,1,.26-.06,1.08,1.08,0,0,1,.27.07l.19.3a.28.28,0,0,1-.25,0l-.3-.13c-.06,0-.16,0-.19,0s-.2,0-.3.06A.92.92,0,0,1,29.1,45.06Z"/><path class="cls-1" d="M37.37,15.36l.18-.36c.08,0,.18,0,.26.07v.24l-.17.14c-.14,0-.26.13-.38.25s0,.08-.07.11l-.1,0L37,15.79v-.21Z"/><path class="cls-1" d="M21.89,11.33v-.2H22a.89.89,0,0,1,.39.76l-.29.09-.09.08L22,11.89c.1-.13,0-.29.06-.44Z"/><path class="cls-1" d="M31.14,42.52c-.13-.25-.37-.28-.5-.47a3,3,0,0,0-.43-.44v-.14h.16a1.89,1.89,0,0,0,.57.47l.2.35Z"/><path class="cls-1" d="M45.44,32a.44.44,0,0,1,.17-.49l.17.15v.19c.13.07.27.15.43,0l.07.2h0a.34.34,0,0,1-.47.06.41.41,0,0,0-.21,0Z"/><path class="cls-1" d="M29.1,51.16c-.17.11-.22.1-.38,0a.67.67,0,0,0-.36-.19l-.09-.37C28.55,50.5,28.88,50.82,29.1,51.16Z"/><path class="cls-1" d="M45.09,6,45,6.1a1.55,1.55,0,0,1-.36-.21,1.16,1.16,0,0,1-.2-.32c0-.12.17-.14.25-.19A1.12,1.12,0,0,1,45.09,6Z"/><path class="cls-1" d="M48.8,33.84l.13-.11.24.2a.61.61,0,0,0,.32.16,1,1,0,0,1,.27.11l-.06.16-.32.14c-.08,0-.14-.06-.14-.16S49.2,34,49,34C48.92,34,48.87,33.92,48.8,33.84Z"/><path class="cls-1" d="M35.42,46.28l.22.16c.06.22-.1.31-.2.4s-.14.09-.14.2,0,.06-.08.1-.11-.23-.07-.34A.88.88,0,0,1,35.42,46.28Z"/><path class="cls-1" d="M53,29.76c-.42-.21-.45-.35-.45-.68l.09-.1a.51.51,0,0,1,.17.07A.81.81,0,0,1,53,29.76Z"/><path class="cls-1" d="M37,15.93a.57.57,0,0,1-.13.52h-.19a1.2,1.2,0,0,1-.07-.62C36.77,15.75,36.85,16,37,15.93Z"/><path class="cls-1" d="M44.37,5.9l.21.1-.29.43c-.11,0-.21.17-.4.11A2.6,2.6,0,0,1,44,6.3Z"/><path class="cls-1" d="M34.57,43.51l.13.13.06.5-.08.09c-.23-.1-.22-.33-.33-.5l.1-.22Z"/><path class="cls-1" d="M3.31,30.49l-.23.08-.16-.21v-.12l.1,0,0-.11h.32l.08.16Z"/><path class="cls-1" d="M26.42,47.85a.73.73,0,0,1,.52.1s0,.11,0,.16l0,0h-.58L26.24,48Z"/><path class="cls-1" d="M41.24,19.18l.09-.26h.23c.12,0,.15-.2.33-.17l.15.18V19L42,19a1.17,1.17,0,0,0-.46.08Z"/><path class="cls-1" d="M51,28.47h.25l.23.44-.21,0H51L51,28.85Z"/><path class="cls-1" d="M63.84,28.47h.26v.44h-.39C63.65,28.74,63.8,28.62,63.84,28.47Z"/><path class="cls-1" d="M26,47.82V48a2.85,2.85,0,0,1-.92.08l0-.17A3,3,0,0,0,26,47.82Z"/><path class="cls-1" d="M30,51.72l-.06-.33.11-.1.18.08a1.2,1.2,0,0,1,.13.31c0,.06-.05.13-.08.22Z"/><path class="cls-1" d="M45.79,30.81H46c0,.19.18.31.1.5s-.21.1-.28-.07A.87.87,0,0,1,45.79,30.81Z"/><path class="cls-1" d="M45.73,34.08h.2l.14.28v.3h-.13A.88.88,0,0,1,45.73,34.08Z"/><path class="cls-1" d="M2.19,30.52a.42.42,0,0,1,.39-.19l.16.21a.4.4,0,0,1-.36.14Z"/><path class="cls-1" d="M24.22,47.84h-.38l-.14-.22a1.35,1.35,0,0,1,.67.06Z"/><path class="cls-1" d="M29.15,44.48l-.12.11-.16-.16A.54.54,0,0,1,29,44l.19.17Z"/><path class="cls-1" d="M43.24,7.09,43.15,7c0-.09,0-.19.11-.26h.24l.08.19-.23.16Z"/><path class="cls-1" d="M60.29,27.74l.12-.11.36.07v.13a.46.46,0,0,1-.41.1Z"/><path class="cls-1" d="M46.61,33l-.15-.27a3.17,3.17,0,0,1,.41,0l.1.21-.13.06,0,0Z"/><path class="cls-1" d="M15.29,11.94l.3-.11.09.08-.18.34-.21-.05Z"/><path class="cls-1" d="M45.65,15.77l.07-.18h.22l.07.06v.24l-.09.13Z"/><path class="cls-1" d="M32.44,40.37c-.22.23-.36,0-.53,0v-.15h.23Z"/><path class="cls-1" d="M51.21,33.16l.14.14-.08.19h-.14L51,33.32v-.16Z"/><path class="cls-1" d="M49.88,33.6l.26.23a1,1,0,0,1-.29.28,2.8,2.8,0,0,1,0-.49Z"/><path class="cls-1" d="M8.15,31.16h.33l.17.15-.08.07H8.26Z"/><path class="cls-1" d="M65.49,28.75a.48.48,0,0,1,.15.35l-.11.14-.12-.09v-.32Z"/><path class="cls-1" d="M35.67,32.5l-.15.17H35.2a.28.28,0,0,1,.22-.23h.23Z"/><path class="cls-1" d="M25.82,43.67l.1.09V44l-.07.15-.08,0C25.72,43.94,25.61,43.8,25.82,43.67Z"/><path class="cls-1" d="M30.88,53.5l-.16.16-.18-.11s0-.07.05-.08l.22-.14Z"/><path class="cls-1" d="M19.09,14.3c.16-.08.21.12.34.13v.14c-.15,0-.24,0-.34-.12Z"/><path class="cls-1" d="M8.84,31.6v-.2s.06,0,.08,0l.2.08v.2s-.06,0-.08,0Z"/><path class="cls-1" d="M42.4,18.37l.11.05.1,0,0,.14-.08.16-.18-.15Z"/><path class="cls-1" d="M23.07,15.65c-.11.2-.23.06-.35,0v-.2s.06,0,.08,0Z"/><path class="cls-1" d="M27.23,39.69v-.21h.21c0,.05.11.11.06.21Z"/><path class="cls-1" d="M52.19,16.57l.24.16a.83.83,0,0,1-.14.13s-.08,0-.11,0S52.09,16.74,52.19,16.57Z"/><path class="cls-1" d="M19.56,11.07V11h.15l.07.11a.87.87,0,0,1,.08.14l-.14,0Z"/><path class="cls-1" d="M50.94,32.69l-.29-.08v-.16h.21l.08.08Z"/><path class="cls-1" d="M60.25,29.82l-.13-.1.11-.22s.09.05.11.08S60.35,29.76,60.25,29.82Z"/><path class="cls-1" d="M47.51,35l-.19-.23h.38Z"/><path class="cls-1" d="M59.85,32.12l.15,0,.25.19-.19.06Z"/><path class="cls-1" d="M59.4,28.73l.1.14-.1.12h-.12C59.22,28.93,59.24,28.87,59.4,28.73Z"/><path class="cls-1" d="M24.34,13.74c.13,0,.19.07.19.17s-.06.12-.15.16S24.36,13.87,24.34,13.74Z"/><path class="cls-1" d="M52,26.37l-.15-.12.1-.26C52,26.11,52.05,26.22,52,26.37Z"/><path class="cls-1" d="M22,33.34v.09h-.27l-.1-.18Z"/><path class="cls-1" d="M40.75,19.37v-.15H41v.15Z"/><path class="cls-1" d="M46,33.15h.14v.22C46,33.33,46,33.33,46,33.15Z"/><path class="cls-1" d="M47.27,30.43c-.14,0-.22,0-.26-.11C47.15,30.27,47.15,30.27,47.27,30.43Z"/><path class="cls-1" d="M1.65,30.72l.27.1L1.65,31Z"/><path class="cls-1" d="M27,14v.15h-.15L26.82,14Z"/><path class="cls-1" d="M40.54,48.66l-.2-.2C40.55,48.43,40.57,48.46,40.54,48.66Z"/><path class="cls-1" d="M43.81,6.82V6.59l.14.09Z"/><path class="cls-1" d="M40.32,18.8l.18-.17,0,.22h-.17Z"/><path class="cls-1" d="M40.06,19.33l-.24,0,.2-.21Z"/><path class="cls-1" d="M47.44,17.37l-.26-.1v0h.22Z"/><path class="cls-1" d="M35.33,16.81l-.07-.08.07-.17.11.12Z"/><path class="cls-1" d="M38.18,15v-.09h.17C38.35,15.05,38.25,15,38.18,15Z"/><path class="cls-1" d="M26.93,45.73h-.17v-.1h.17Z"/><path class="cls-1" d="M27,45.8h.21l0,.15Z"/><path class="cls-1" d="M25,12.19h.22l0,.14Z"/><path class="cls-1" d="M34.57,48l.12.07C34.55,48.12,34.55,48.12,34.57,48Z"/><path class="cls-1" d="M43.19,14.3l.12,0,0,.17Z"/><path class="cls-1" d="M52.36,28.76h.09v.17Z"/><path class="cls-1" d="M1.34,29.86V30l0,0,0-.11Z"/><path class="cls-1" d="M42.44,14.3v.1h0l0-.1Z"/><path class="cls-1" d="M29.61,41.1h-.09v0l.1,0Z"/><ellipse class="cls-1" cx="22.51" cy="33.58" rx="0.01" ry="0.04"/><ellipse class="cls-1" cx="46.57" cy="34.52" rx="0.01" ry="0.04"/><path class="cls-1" d="M31.15,42.45l.05,0,0,0,0,0Z"/><ellipse class="cls-1" cx="20.34" cy="11.57" rx="0.01" ry="0.04"/><path class="cls-1" d="M27,45.79l-.06,0Z"/><path class="cls-1" d="M58.67,38.14l-.05.14,0,0-.09.1-.06,0a1.21,1.21,0,0,1-.3-.25c-.06-.1,0-.25-.09-.36a.43.43,0,0,1,0-.25h.18Z"/><path class="cls-1" d="M62.54,35.8v.14l.1,0v.19c-.21.1-.36-.1-.54-.11L62,35.9v-.15l.14-.14C62.28,35.58,62.37,35.76,62.54,35.8Z"/><path class="cls-1" d="M59.13,38.53a.45.45,0,0,1,.4-.23l0,.25c-.07.06-.11.19-.25.15Z"/><path class="cls-1" d="M59.35,38.89l.23.16-.13.14L59.12,39C59.22,38.89,59.22,38.89,59.35,38.89Z"/><path class="cls-1" d="M58.07,38.63l.27.19-.28.21L58,38.89l0,0v-.15Z"/><path class="cls-1" d="M52.35,40.41v.2c.08.14.22.06.29.12l.14.06v.05l-.2.08a1,1,0,0,1-.71-.31v-.16a.79.79,0,0,0,.18-.58,1.37,1.37,0,0,0,.18-.45c0-.16.15-.26.26-.36h.12c0,.12.14.23,0,.38s0,.23-.07.32C52.61,40,52.43,40.17,52.35,40.41Z"/><path class="cls-1" d="M50,38.12h-.11V38l-.33-.23.38-.12a.41.41,0,0,0-.08-.37l.17,0a.62.62,0,0,0,.57-.31c0-.1.18-.16.29-.24s0-.2-.06-.3l.14-.12c0,.14.18.23,0,.36l.14.15c.12-.06.12-.06.37-.06,0,0,0,.05,0,.08v.08l-.27,0c0,.07-.14.09-.2.18a1.56,1.56,0,0,1-.71.56,2.84,2.84,0,0,1-.34.08Z"/><path class="cls-1" d="M52.05,42l.14.14.08-.06.2.09-.09.67h-.14L52,42.54c.08-.16.14-.3,0-.43l-.07,0-.11-.11-.21.2a1.8,1.8,0,0,1,.06.22.2.2,0,0,1,0,.17l-.05.15a.46.46,0,0,1-.14-.42l-.12-.12v-.37a.65.65,0,0,0,.58-.22A.47.47,0,0,1,52.05,42Z"/><path class="cls-1" d="M50.41,40.4c.17.07.08.31.27.36h.1l.17.09a.82.82,0,0,1-.32.51c-.12-.17-.31-.13-.48-.13L50,41.07A1,1,0,0,1,50.41,40.4Z"/><path class="cls-1" d="M49.12,36.78l.28-.15,0-.09h.14l0,.31c0,.09.11.19.16.3s0,.05,0,.09a.67.67,0,0,1-.64-.2Z"/><path class="cls-1" d="M54.54,38.31l.27.38-.06.34-.22.1-.2-.29a.63.63,0,0,0,0-.59Z"/><path class="cls-1" d="M54.14,41.58c-.19,0-.32-.12-.49-.22L54,41l-.08-.22.12-.09.18.15Z"/><path class="cls-1" d="M49.91,41.77l.23-.3h.25l.15.15a.52.52,0,0,1-.14.2c-.06,0-.07.13-.1.21h-.24Z"/><path class="cls-1" d="M50.36,39.12c-.1,0-.2,0-.27.05l-.1-.09c.13-.17.07-.32-.06-.48H49.8l-.24-.18.11-.12h.26a1.72,1.72,0,0,0,.07.21c0,.05.06.13.09.13a.24.24,0,0,1,.19.16A1.07,1.07,0,0,1,50.36,39.12Z"/><path class="cls-1" d="M55.72,39.35c-.13-.09-.1-.18-.09-.28l.21-.14.18-.18c0,.19.21.27.19.47l-.22.13Z"/><path class="cls-1" d="M54.83,39.24H55l.15.22v.28l-.15.07C54.71,39.63,54.69,39.56,54.83,39.24Z"/><path class="cls-1" d="M54.83,41.52l-.08-.08a.74.74,0,0,1,.14-.56l.26.28c.08.15-.11.22-.14.36Q54.92,41.4,54.83,41.52Z"/><path class="cls-1" d="M52,41.12c.24-.09.24-.09.4,0v.3c-.09.14-.22.06-.32.09L52,41.44Z"/><path class="cls-1" d="M50.35,39.12h.28s0,.07.09.09.06,0,.1,0v.32A.54.54,0,0,1,50.35,39.12Z"/><path class="cls-1" d="M50.37,40.21,50.3,40a1.41,1.41,0,0,1,0-.22l.34.12v.22l-.13.13Z"/><path class="cls-1" d="M51.57,43.5l-.14-.06c-.13-.15-.06-.3,0-.45h.14Z"/><path class="cls-1" d="M50.52,38.58l-.07-.18.17-.09.29.13-.1.14Z"/><path class="cls-1" d="M53,42l-.14.09-.11-.21.14-.27A.48.48,0,0,1,53,42Z"/><path class="cls-1" d="M54.24,41.56l.33.09v.15l-.29,0-.08-.2Z"/><path class="cls-1" d="M51.13,40v-.25l.21.17v.31a.59.59,0,0,1-.11-.09Z"/><path class="cls-1" d="M52.83,42.92l-.07-.08v-.21l.21-.08v.3Z"/><path class="cls-1" d="M53,40.34l-.1.08-.11-.09v-.26c.1,0,.18,0,.17.1A.68.68,0,0,0,53,40.34Z"/><path class="cls-1" d="M55.64,40l-.23.11-.11-.24h.26Z"/><path class="cls-1" d="M56,40.17,55.86,40c.06-.13.17-.09.28-.09v.15Z"/><path class="cls-1" d="M50.3,36.25l.08-.18.1,0C50.45,36.19,50.42,36.26,50.3,36.25Z"/><path class="cls-1" d="M51.36,40.64H51.3v-.11h0Z"/><path class="cls-1" d="M33,6.84l.07.15a.56.56,0,0,0,0,.12L33,7.45l-.11.1c-.18,0-.27-.11-.32-.44A1.73,1.73,0,0,1,32.24,7,1.31,1.31,0,0,1,32,6.76V6.39l.16-.08.23.16.19.37Z"/><path class="cls-1" d="M34.28,3.17c-.17-.17-.52-.1-.57-.42.26-.15.35-.15.52,0S34.39,3,34.28,3.17Z"/><path class="cls-1" d="M33.77,3.54v.3c-.07.11-.16.09-.26.08a.31.31,0,0,1,0-.46C33.56,3.4,33.66,3.5,33.77,3.54Z"/><path class="cls-1" d="M33.3,8.2l-.13-.52a3.66,3.66,0,0,1,.44.38C33.57,8.23,33.45,8.2,33.3,8.2Z"/><path class="cls-1" d="M34.48,5h.22l.27.29a.25.25,0,0,1-.37-.1Z"/><path class="cls-1" d="M36.76,4.92h-.13l-.15-.21V4.58c.15-.06.2.06.29.13Z"/><path class="cls-1" d="M33.47,2.46c-.2,0-.2,0-.21-.22h.21Z"/><path class="cls-1" d="M35.43,8.13H35.1L35.2,8Z"/><path class="cls-1" d="M38.78,60.85c-.15.07-.2.25-.38.23s-.1-.2-.23-.21-.12-.14-.17-.22a1.81,1.81,0,0,0-.24-.24A.47.47,0,0,1,38,60c.15,0,.15,0,.42.18v.37Z"/><path class="cls-1" d="M36.86,59.06l.1-.15h.19l.1-.12h.19l.14.15-.12.19A1.13,1.13,0,0,1,36.86,59.06Z"/><path class="cls-1" d="M36.26,59.36l.15-.19.17.19Z"/><path class="cls-1" d="M41.6,5.2l.18-.1.29.21-.17.19h-.15Z"/><path class="cls-1" d="M38.42,7.44h.09v.17h-.09Z"/><ellipse class="cls-1" cx="31.99" cy="61.43" rx="0.12" ry="0.07"/><path class="cls-1" d="M39.74,57.32l-.33.09v-.18l.33-.09Z"/><path class="cls-1" d="M35.63,55.2a.2.2,0,0,1,.26,0,.27.27,0,0,0,.36,0,3.93,3.93,0,0,1,.58-.41.7.7,0,0,1,.54.3.45.45,0,0,1-.32.11,1.19,1.19,0,0,0-.54.17l-.24.19C36,55.49,35.79,55.45,35.63,55.2Z"/><path class="cls-1" d="M31.24,58.6l.09-.26a1.09,1.09,0,0,1,.57-.13l.42-.42.22.2v.22a1.12,1.12,0,0,0-.23-.06,1.19,1.19,0,0,0-.22.08c-.1.14-.06.31-.07.48l-.2.27C31.6,58.89,31.47,58.69,31.24,58.6Z"/><path class="cls-1" d="M59.58,34.67h.23l.14-.13c.17.16.16.23,0,.31a.7.7,0,0,1-.72-.13l-.13-.08v-.21A.82.82,0,0,1,59.58,34.67Z"/><path class="cls-1" d="M41.42,62h.25v.23C41.54,62.18,41.49,62.09,41.42,62Z"/></g></g></svg>